<svg width="88" height="66" viewBox="0 0 88 66" fill="none" xmlns="http://www.w3.org/2000/svg">
<g clip-path="url(#clip0)">
<path d="M36.2724 45.7287C36.2724 48.0065 34.4905 49.8531 32.2924 49.8531C30.0942 49.8531 28.3123 48.0065 28.3123 45.7287C28.3123 45.6771 28.3131 45.6258 28.3153 45.5746C28.3556 43.2972 30.1705 41.4855 32.3682 41.5281C34.5659 41.5706 36.3141 43.4513 36.2731 45.7287H36.2724Z" fill="#6C63FF"/>
<path d="M30.8908 47.5604L29.7445 46.0431L30.016 45.8409L30.9499 47.077L34.6267 44.0911L34.8416 44.3519L30.8908 47.5604Z" fill="white"/>
<path d="M88 65.7633H0V66H88V65.7633Z" fill="#E6E6E6"/>
<path d="M57.9409 23.1882C58.0232 23.2255 58.1024 23.2694 58.1777 23.3193L65.706 20.1298L65.9746 18.1612L68.9828 18.1428L68.805 22.6582L58.8684 25.2671C58.8475 25.3356 58.8223 25.4028 58.7932 25.4682C58.6495 25.7725 58.4185 26.0279 58.129 26.2023C57.8396 26.3767 57.5048 26.4623 57.1665 26.4483C56.8283 26.4344 56.5017 26.3216 56.2278 26.124C55.954 25.9265 55.745 25.653 55.6272 25.3379C55.5094 25.0229 55.488 24.6803 55.5657 24.3532C55.6434 24.0261 55.8167 23.7291 56.0638 23.4994C56.311 23.2698 56.621 23.1178 56.955 23.0625C57.2889 23.0071 57.6318 23.051 57.9407 23.1886L57.9409 23.1882Z" fill="#A0616A"/>
<path d="M70.0767 64.1032H68.0189L67.0399 56.2241H70.0769L70.0767 64.1032Z" fill="#A0616A"/>
<path d="M66.5491 63.5196H70.5177V65.9992H64.0503C64.0503 65.3414 64.3135 64.7104 64.7822 64.2453C65.2508 63.7801 65.8864 63.5187 66.5491 63.5187V63.5196Z" fill="#2F2E41"/>
<path d="M78.0797 63.526L76.032 63.726L74.2797 55.9801L77.3021 55.6854L78.0797 63.526Z" fill="#A0616A"/>
<path d="M74.5102 63.2889L78.459 62.9028L78.7038 65.3708L72.269 66C72.2041 65.3455 72.4037 64.6922 72.824 64.1838C73.2442 63.6753 73.8507 63.3534 74.5101 63.2889H74.5102Z" fill="#2F2E41"/>
<path d="M70.6495 9.80402C72.9263 9.80402 74.772 7.97183 74.772 5.7117C74.772 3.45158 72.9263 1.61938 70.6495 1.61938C68.3727 1.61938 66.527 3.45158 66.527 5.7117C66.527 7.97183 68.3727 9.80402 70.6495 9.80402Z" fill="#A0616A"/>
<path d="M67.559 62.5098C67.3821 62.5101 67.2108 62.4484 67.0752 62.3356C66.9396 62.2229 66.8485 62.0662 66.8179 61.8932C65.7535 56.0251 62.2713 36.8336 62.1879 36.3016C62.186 36.2893 62.1851 36.277 62.1852 36.2646V34.8335C62.1851 34.7814 62.2015 34.7306 62.232 34.6882L62.6919 34.0492C62.7138 34.0184 62.7425 33.993 62.7758 33.975C62.8091 33.9569 62.8461 33.9467 62.884 33.9451C65.5065 33.8231 74.0936 33.4653 74.5085 33.9799C74.9251 34.4964 74.777 36.0638 74.7434 36.3726L74.7451 36.4047L78.6033 60.8976C78.6335 61.093 78.585 61.2923 78.4682 61.4524C78.3515 61.6126 78.1759 61.7206 77.9795 61.7531L75.5699 62.1472C75.3904 62.1758 75.2065 62.1395 75.0517 62.045C74.8969 61.9504 74.7815 61.8038 74.7264 61.6319C73.9811 59.2678 71.4821 51.3151 70.6159 48.2377C70.6112 48.2174 70.599 48.1996 70.5817 48.1879C70.5645 48.1761 70.5433 48.1712 70.5226 48.1742C70.5019 48.1772 70.483 48.1878 70.4698 48.204C70.4566 48.2201 70.45 48.2406 70.4513 48.2614C70.4946 51.1949 70.5991 58.679 70.6359 61.264L70.6397 61.5424C70.6413 61.7309 70.5716 61.9131 70.4444 62.053C70.3172 62.193 70.1418 62.2805 69.9528 62.2982L67.6292 62.5072C67.6059 62.5092 67.5824 62.5101 67.559 62.5098Z" fill="#2F2E41"/>
<path d="M68.0332 11.4132C67.3138 11.8378 66.8832 12.6178 66.6362 13.413C66.1788 14.8828 65.9036 16.4024 65.8164 17.9382L65.5552 22.5366L62.3232 34.7283C65.1245 37.0811 66.7401 36.5462 70.511 34.6218C74.2818 32.6973 74.7125 35.2634 74.7125 35.2634L75.4665 24.8899L76.5437 13.5544C76.3019 13.2654 76.0281 13.0042 75.7276 12.7757C74.7319 12.0069 73.5734 11.4725 72.3394 11.2127C71.1054 10.9529 69.8281 10.9746 68.6038 11.276L68.0332 11.4132Z" fill="#6C63FF"/>
<path d="M66.9834 25.6504C67.0703 25.6827 67.1545 25.7217 67.2352 25.7671L74.6792 22.0681L74.8027 20.0643L77.8733 19.8542L78.0378 24.4219L68.0901 27.6878C68.009 28.0339 67.8236 28.3472 67.5587 28.5861C67.2938 28.825 66.9618 28.9781 66.6071 29.0252C66.2523 29.0722 65.8915 29.0109 65.5727 28.8494C65.2539 28.688 64.9922 28.4339 64.8224 28.1212C64.6526 27.8084 64.5827 27.4518 64.6221 27.0986C64.6615 26.7455 64.8083 26.4126 65.0429 26.1443C65.2775 25.876 65.5889 25.685 65.9355 25.5967C66.2822 25.5083 66.6478 25.5268 66.9836 25.6498L66.9834 25.6504Z" fill="#A0616A"/>
<path d="M76.4901 13.6055C78.3215 14.2471 78.6443 21.1991 78.6443 21.1991C76.4896 20.0227 73.9041 21.9476 73.9041 21.9476C73.9041 21.9476 73.3655 20.1294 72.719 17.7769C72.5238 17.1151 72.5005 16.415 72.6512 15.7419C72.8018 15.0687 73.1216 14.4444 73.5808 13.9269C73.5808 13.9269 74.6585 12.9635 76.4901 13.6055Z" fill="#6C63FF"/>
<path d="M74.3452 6.7936C73.8316 6.38571 73.1309 7.12683 73.1309 7.12683L72.72 3.4566C72.72 3.4566 70.1519 3.76202 68.508 3.3546C66.864 2.94718 66.6075 4.83376 66.6075 4.83376C66.5227 4.07187 66.5055 3.30405 66.5561 2.53917C66.6588 1.62137 67.9942 0.70358 70.3569 0.0916784C72.7197 -0.520223 73.9524 2.13127 73.9524 2.13127C75.597 2.94647 74.8595 7.20197 74.3452 6.7936Z" fill="#2F2E41"/>
<path d="M19.2076 5.39026C19.1094 5.39043 19.0154 5.42925 18.9461 5.49818C18.8768 5.56712 18.8378 5.66054 18.8378 5.75794C18.8378 5.85534 18.8768 5.94876 18.9461 6.01769C19.0154 6.08663 19.1094 6.12545 19.2076 6.12562H46.2504C46.3485 6.12545 46.4426 6.08663 46.5119 6.01769C46.5812 5.94876 46.6201 5.85534 46.6201 5.75794C46.6201 5.66054 46.5812 5.56712 46.5119 5.49818C46.4426 5.42925 46.3485 5.39043 46.2504 5.39026H19.2076Z" fill="#CCCCCC"/>
<path d="M19.2076 7.59637C19.1094 7.59631 19.0153 7.63491 18.9458 7.7037C18.8763 7.77249 18.8371 7.86586 18.8369 7.96328C18.8367 8.06071 18.8755 8.15423 18.9447 8.22331C19.0139 8.2924 19.1079 8.33139 19.206 8.33173H36.3028C36.3514 8.33173 36.3996 8.32222 36.4445 8.30375C36.4894 8.28527 36.5303 8.25818 36.5647 8.22404C36.5991 8.1899 36.6264 8.14937 36.645 8.10476C36.6636 8.06015 36.6732 8.01234 36.6732 7.96405C36.6732 7.91577 36.6636 7.86796 36.645 7.82335C36.6264 7.77874 36.5991 7.73821 36.5647 7.70407C36.5303 7.66992 36.4894 7.64284 36.4445 7.62436C36.3996 7.60588 36.3514 7.59637 36.3028 7.59637H19.2076Z" fill="#CCCCCC"/>
<path d="M45.9115 2.57955C45.9115 3.4711 45.214 4.19385 44.3536 4.19385C43.4933 4.19385 42.7958 3.47111 42.7958 2.57955C42.7958 2.55934 42.7962 2.53927 42.797 2.51923C42.8128 1.62785 43.5231 0.91876 44.3833 0.935407C45.2435 0.952054 45.9278 1.68817 45.9117 2.57955H45.9115Z" fill="#6C63FF"/>
<path d="M43.8051 3.29647L43.3564 2.7026L43.4626 2.62343L43.8282 3.10725L45.2673 1.93854L45.3515 2.04061L43.8051 3.29647Z" fill="white"/>
<path d="M19.2076 18.8802C19.1094 18.8804 19.0154 18.9192 18.9461 18.9882C18.8768 19.0571 18.8378 19.1505 18.8378 19.2479C18.8378 19.3453 18.8768 19.4388 18.9461 19.5077C19.0154 19.5766 19.1094 19.6154 19.2076 19.6156H46.2504C46.3485 19.6154 46.4426 19.5766 46.5119 19.5077C46.5812 19.4388 46.6201 19.3453 46.6201 19.2479C46.6201 19.1505 46.5812 19.0571 46.5119 18.9882C46.4426 18.9192 46.3485 18.8804 46.2504 18.8802H19.2076Z" fill="#CCCCCC"/>
<path d="M19.2076 21.0864C19.1094 21.0863 19.0153 21.1249 18.9458 21.1937C18.8763 21.2625 18.8371 21.3558 18.8369 21.4533C18.8367 21.5507 18.8755 21.6442 18.9447 21.7133C19.0139 21.7824 19.1079 21.8214 19.206 21.8217H36.3028C36.401 21.8217 36.4952 21.783 36.5647 21.714C36.6341 21.6451 36.6732 21.5516 36.6732 21.454C36.6732 21.3565 36.6341 21.263 36.5647 21.1941C36.4952 21.1251 36.401 21.0864 36.3028 21.0864H19.2076Z" fill="#CCCCCC"/>
<path d="M45.7922 16.0695C45.7922 16.9611 45.0948 17.6838 44.2344 17.6838C43.3741 17.6838 42.6766 16.9611 42.6766 16.0695C42.6766 16.0493 42.677 16.0293 42.6778 16.0092C42.6936 15.1178 43.4039 14.4087 44.2641 14.4254C45.1243 14.442 45.8086 15.1782 45.7925 16.0695H45.7922Z" fill="#6C63FF"/>
<path d="M43.6859 16.7865L43.2372 16.1926L43.3434 16.1135L43.709 16.5973L45.1481 15.4286L45.2322 15.5307L43.6859 16.7865Z" fill="white"/>
<path d="M19.2076 32.3702C19.1094 32.3704 19.0154 32.4092 18.9461 32.4782C18.8768 32.5471 18.8378 32.6405 18.8378 32.7379C18.8378 32.8353 18.8768 32.9287 18.9461 32.9977C19.0154 33.0666 19.1094 33.1054 19.2076 33.1056H46.2504C46.3485 33.1054 46.4426 33.0666 46.5119 32.9977C46.5812 32.9287 46.6201 32.8353 46.6201 32.7379C46.6201 32.6405 46.5812 32.5471 46.5119 32.4782C46.4426 32.4092 46.3485 32.3704 46.2504 32.3702H19.2076Z" fill="#CCCCCC"/>
<path d="M19.2076 34.5764C19.1094 34.5763 19.0153 34.6149 18.9458 34.6837C18.8763 34.7525 18.8371 34.8458 18.8369 34.9433C18.8367 35.0407 18.8755 35.1342 18.9447 35.2033C19.0139 35.2724 19.1079 35.3114 19.206 35.3117H36.3028C36.401 35.3117 36.4952 35.273 36.5647 35.204C36.6341 35.1351 36.6732 35.0415 36.6732 34.944C36.6732 34.8465 36.6341 34.753 36.5647 34.684C36.4952 34.6151 36.401 34.5764 36.3028 34.5764H19.2076Z" fill="#CCCCCC"/>
<path d="M45.7922 29.5595C45.7922 30.4511 45.0948 31.1739 44.2344 31.1739C43.3741 31.1739 42.6766 30.4511 42.6766 29.5595C42.6766 29.5393 42.677 29.5193 42.6778 29.4992C42.6936 28.6078 43.4039 27.8987 44.2641 27.9154C45.1243 27.932 45.8086 28.6682 45.7925 29.5595H45.7922Z" fill="#6C63FF"/>
<path d="M43.6859 30.2765L43.2372 29.6826L43.3434 29.6035L43.709 30.0873L45.1481 28.9186L45.2322 29.0207L43.6859 30.2765Z" fill="white"/>
</g>
<defs>
<clipPath id="clip0">
<rect width="88" height="66" fill="white"/>
</clipPath>
</defs>
</svg>
