<svg width="565" height="389" viewBox="0 0 565 389" fill="none" xmlns="http://www.w3.org/2000/svg">
<g clip-path="url(#clip0)">
<path d="M532.941 102.791C505.238 102.791 477.194 98.639 449.336 90.3968C422.281 82.3916 395.341 70.5321 369.265 55.1477C328.202 30.9211 302.142 5.38568 298.251 1.46905C283.543 24.7856 261.205 43.1832 231.846 56.1548C208.185 66.6088 179.936 73.5825 147.882 76.8816C93.3354 82.4974 46.022 75.4128 45.5504 75.3403C45.4025 75.3177 45.2696 75.2372 45.181 75.1166C45.0924 74.9959 45.0554 74.845 45.0781 74.6971C45.1007 74.5492 45.1812 74.4163 45.3018 74.3277C45.4225 74.2391 45.5733 74.2021 45.7213 74.2247C46.1915 74.2972 93.3835 81.3606 147.79 75.7567C197.934 70.5919 264.641 53.3025 297.673 0.265544C297.718 0.192625 297.78 0.131044 297.853 0.0854907C297.925 0.039938 298.008 0.0116193 298.093 0.00269026C298.179 -0.00623873 298.265 0.00445757 298.346 0.033967C298.426 0.0634764 298.499 0.11102 298.559 0.172971C298.824 0.449051 325.596 28.0785 369.868 54.1936C410.708 78.2835 475.22 105.977 550.631 101.092C550.781 101.082 550.927 101.132 551.04 101.231C551.152 101.33 551.221 101.469 551.23 101.618C551.24 101.768 551.19 101.915 551.091 102.027C550.993 102.14 550.854 102.208 550.704 102.218C544.803 102.6 538.882 102.791 532.941 102.791Z" fill="#CCCCCC"/>
<path d="M108.566 104.402C108.278 104.386 108.002 104.281 107.778 104.1C107.553 103.92 107.39 103.674 107.312 103.397L100.059 79.0359C99.9976 78.83 99.9841 78.6129 100.019 78.4011C100.055 78.1892 100.138 77.9883 100.263 77.8135C100.388 77.6387 100.551 77.4947 100.74 77.3925C100.929 77.2903 101.138 77.2326 101.353 77.2237H101.353L116.127 76.6158C116.352 76.6066 116.576 76.6513 116.78 76.7461C116.984 76.8409 117.162 76.9832 117.3 77.1609C117.438 77.3387 117.531 77.5468 117.572 77.768C117.613 77.9891 117.601 78.2169 117.536 78.4323L110.014 103.401C109.931 103.694 109.753 103.951 109.508 104.132C109.263 104.314 108.966 104.41 108.661 104.405C108.629 104.405 108.597 104.404 108.566 104.402Z" fill="#E6E6E6"/>
<path d="M179.684 99.0525C179.397 99.0832 179.108 99.0235 178.857 98.8819C178.606 98.7402 178.406 98.5237 178.284 98.2625L167.203 75.3874C167.11 75.1941 167.061 74.982 167.062 74.7672C167.063 74.5524 167.113 74.3407 167.208 74.1481C167.303 73.9555 167.441 73.7871 167.611 73.6558C167.781 73.5245 167.978 73.4338 168.189 73.3905H168.189L182.672 70.4115C182.893 70.3663 183.121 70.3744 183.337 70.4351C183.554 70.4958 183.753 70.6075 183.918 70.7607C184.082 70.914 184.208 71.1044 184.284 71.316C184.36 71.5277 184.385 71.7545 184.355 71.9775L180.952 97.8316C180.916 98.1341 180.782 98.4165 180.57 98.635C180.358 98.8534 180.08 98.9959 179.778 99.0402C179.747 99.0452 179.715 99.0494 179.684 99.0525Z" fill="#E6E6E6"/>
<path d="M258.05 72.264C257.785 72.3758 257.491 72.4018 257.21 72.3384C256.928 72.2749 256.674 72.1252 256.482 71.9101L239.289 53.1901C239.144 53.0319 239.036 52.8426 238.975 52.6367C238.914 52.4308 238.901 52.2136 238.937 52.0018C238.972 51.79 239.056 51.5892 239.181 51.4145C239.306 51.2399 239.469 51.0961 239.658 50.9941L239.658 50.9941L252.673 43.974C252.871 43.8673 253.091 43.8094 253.316 43.8053C253.541 43.8012 253.764 43.8508 253.965 43.9502C254.167 44.0496 254.342 44.1958 254.476 44.3766C254.61 44.5574 254.699 44.7676 254.735 44.9896L258.914 70.7298C258.967 71.0297 258.919 71.3387 258.779 71.609C258.639 71.8793 258.413 72.0958 258.137 72.2249C258.109 72.2388 258.079 72.252 258.05 72.264Z" fill="#E6E6E6"/>
<path d="M508.18 127.508C507.896 127.46 507.634 127.324 507.431 127.12C507.227 126.916 507.093 126.653 507.046 126.369L502.565 101.349C502.528 101.138 502.538 100.921 502.597 100.714C502.656 100.508 502.761 100.317 502.905 100.157C503.049 99.9977 503.227 99.8729 503.426 99.7925C503.625 99.712 503.84 99.6781 504.054 99.6934H504.054L518.804 100.743C519.028 100.759 519.246 100.828 519.438 100.945C519.63 101.062 519.791 101.224 519.908 101.416C520.025 101.608 520.095 101.825 520.111 102.049C520.127 102.274 520.089 102.499 520.001 102.705L509.732 126.676C509.616 126.957 509.41 127.193 509.147 127.346C508.883 127.499 508.577 127.56 508.275 127.522C508.243 127.518 508.211 127.513 508.18 127.508Z" fill="#E6E6E6"/>
<path d="M429.454 111.121C429.188 111.011 428.962 110.821 428.809 110.577C428.657 110.332 428.584 110.046 428.601 109.759L429.784 84.3687C429.794 84.1541 429.852 83.9447 429.956 83.7563C430.059 83.568 430.204 83.4057 430.379 83.2818C430.555 83.1579 430.756 83.0757 430.968 83.0415C431.18 83.0072 431.397 83.0219 431.603 83.0843L431.603 83.0843L445.752 87.3801C445.967 87.4455 446.164 87.5614 446.325 87.7182C446.486 87.8749 446.608 88.068 446.679 88.2813C446.751 88.4945 446.77 88.7218 446.736 88.9441C446.702 89.1665 446.615 89.3774 446.483 89.5594L431.152 110.654C430.976 110.902 430.723 111.087 430.433 111.177C430.142 111.268 429.829 111.26 429.543 111.155C429.513 111.145 429.483 111.133 429.454 111.121Z" fill="#E6E6E6"/>
<path d="M382.083 125.193H373.628C373.247 125.193 372.87 125.107 372.527 124.942C372.184 124.776 371.882 124.536 371.644 124.238C371.406 123.94 371.238 123.593 371.153 123.221C371.068 122.85 371.067 122.464 371.151 122.092L372.717 115.182C352.624 111.915 337.509 89.9663 337.509 63.9681C337.509 35.4983 355.609 12.3363 377.855 12.3363C400.102 12.3363 418.202 35.4983 418.202 63.9681C418.202 89.9663 403.087 111.915 382.994 115.182L384.56 122.092C384.644 122.464 384.643 122.85 384.558 123.221C384.473 123.593 384.305 123.94 384.067 124.238C383.829 124.536 383.527 124.776 383.184 124.942C382.841 125.107 382.464 125.193 382.083 125.193Z" fill="#FF6584"/>
<path d="M385.473 117.292H371.931C371.407 117.292 370.904 117.084 370.534 116.714C370.164 116.344 369.956 115.841 369.956 115.318C369.956 114.794 370.164 114.291 370.534 113.921C370.904 113.551 371.407 113.343 371.931 113.343H385.473C385.997 113.343 386.499 113.551 386.87 113.921C387.24 114.291 387.448 114.794 387.448 115.318C387.448 115.841 387.24 116.344 386.87 116.714C386.499 117.084 385.997 117.292 385.473 117.292Z" fill="#3F3D56"/>
<path d="M371.357 114.831C369.285 114.313 367.121 114.277 365.033 114.726C362.945 115.174 360.987 116.095 359.31 117.418C357.66 118.773 356.348 120.495 355.48 122.446C354.612 124.397 354.21 126.523 354.308 128.656C354.721 137.876 364.003 142.831 370.473 147.79C378.119 153.649 385.296 160.41 390.476 168.595C395.607 176.701 398.824 186.306 398.079 195.981C397.434 204.348 393.642 212.644 387.139 218.059C386.32 218.736 385.459 219.363 384.563 219.935C383.649 220.522 384.497 221.988 385.417 221.397C392.542 216.817 397.256 209.182 399.041 200.98C401.027 191.854 399.257 182.354 395.354 173.977C391.299 165.274 384.92 157.875 377.752 151.576C374.197 148.451 370.421 145.615 366.596 142.833C363.233 140.386 359.708 137.751 357.618 134.068C356.586 132.261 356.032 130.222 356.01 128.141C355.987 126.061 356.497 124.01 357.49 122.182C358.526 120.343 360.03 118.811 361.85 117.741C363.67 116.671 365.74 116.101 367.851 116.09C368.881 116.08 369.909 116.205 370.907 116.463C371.963 116.733 372.414 115.101 371.357 114.831H371.357Z" fill="#3F3D56"/>
<path d="M352.181 78.3572C351.216 78.3561 350.291 77.9757 349.605 77.2982C348.919 76.6207 348.527 75.7004 348.513 74.7362C345.493 65.9282 345.493 56.3651 348.513 47.557C348.525 46.5881 348.92 45.6632 349.611 44.9844C350.303 44.3056 351.235 43.9281 352.204 43.9343C353.173 43.9405 354.1 44.3299 354.783 45.0174C355.466 45.705 355.849 46.6348 355.848 47.6039L355.831 47.7011C352.624 56.4412 352.625 65.4898 355.833 74.5957L355.848 74.6894C355.847 75.6618 355.461 76.5941 354.773 77.2817C354.085 77.9693 353.153 78.3561 352.181 78.3572Z" fill="white"/>
<path d="M64.5217 212.464C64.1745 212.307 63.8675 212.073 63.6237 211.779C63.3799 211.486 63.2056 211.142 63.114 210.772L61.3937 203.898C41.9881 210.048 18.5963 197.28 6.86652 174.078C-5.97829 148.67 -0.276017 119.834 19.578 109.797C39.432 99.7593 66.0344 112.264 78.8792 137.671C90.6089 160.873 87.0226 187.281 70.5647 199.261L75.08 204.722C75.3229 205.016 75.4965 205.36 75.588 205.73C75.6795 206.1 75.6866 206.486 75.6087 206.859C75.5307 207.232 75.3698 207.583 75.1379 207.886C74.9059 208.188 74.6088 208.434 74.2687 208.606L66.7228 212.421C66.383 212.594 66.0084 212.688 65.6272 212.695C65.246 212.703 64.868 212.624 64.5217 212.464Z" fill="#CCCCCC"/>
<path d="M57.4795 206.029C57.2438 205.561 57.2032 205.019 57.3666 204.522C57.53 204.024 57.884 203.612 58.351 203.375L70.437 197.265C70.9044 197.029 71.4462 196.989 71.9433 197.153C72.4405 197.316 72.8523 197.671 73.0885 198.138C73.3246 198.605 73.3657 199.146 73.2027 199.644C73.0397 200.141 72.686 200.553 72.2192 200.79L60.1331 206.9C59.6656 207.136 59.1236 207.177 58.6261 207.013C58.1287 206.85 57.7163 206.496 57.4795 206.029Z" fill="#3F3D56"/>
<path d="M71.6201 198.334C73.236 196.937 75.1505 195.929 77.2166 195.387C79.2827 194.846 81.4454 194.784 83.5389 195.208C85.6231 195.673 87.5701 196.618 89.2252 197.967C90.8803 199.316 92.1979 201.033 93.0733 202.981C96.8643 211.395 90.8165 220.005 87.2796 227.349C83.0999 236.028 79.745 245.3 78.8145 254.942C77.8931 264.491 79.3553 274.515 84.3854 282.812C88.7359 289.988 95.8627 295.681 104.109 297.579C105.146 297.815 106.197 297.986 107.255 298.091C108.336 298.203 108.24 299.894 107.152 299.781C98.7273 298.909 91.0764 294.222 85.7825 287.707C79.8927 280.459 77.1857 271.183 76.8897 261.945C76.5823 252.349 78.9367 242.868 82.4913 234.013C84.2544 229.62 86.3449 225.385 88.5029 221.176C90.4004 217.476 92.3577 213.534 92.561 209.303C92.6671 207.226 92.2407 205.155 91.3222 203.289C90.4037 201.423 89.0235 199.822 87.3126 198.638C85.558 197.465 83.5243 196.776 81.4178 196.642C79.3112 196.508 77.2066 196.934 75.3176 197.876C74.3932 198.332 73.5328 198.908 72.7583 199.588C71.9376 200.305 70.7991 199.052 71.6201 198.334L71.6201 198.334Z" fill="#3F3D56"/>
<path d="M67.3499 155.514L67.3219 155.423C66.0762 145.849 61.994 137.774 55.1888 131.421L55.1296 131.342C54.6919 130.477 54.6141 129.474 54.9133 128.553C55.2125 127.631 55.8643 126.865 56.7263 126.422C57.5883 125.98 58.5905 125.896 59.514 126.19C60.4374 126.484 61.2071 127.131 61.6548 127.99C68.3239 134.488 72.6385 143.023 73.9174 152.246C74.3442 153.116 74.4092 154.12 74.0984 155.038C73.7875 155.956 73.1259 156.713 72.2582 157.145C71.3906 157.577 70.3873 157.647 69.4676 157.342C68.5479 157.036 67.7865 156.379 67.3499 155.514V155.514Z" fill="white"/>
<path d="M433.854 259.763L372.157 227.953C371.226 227.472 370.525 226.642 370.206 225.645C369.887 224.647 369.977 223.564 370.456 222.632L374.272 215.23C374.753 214.3 375.584 213.598 376.581 213.279C377.579 212.961 378.662 213.05 379.593 213.529L441.29 245.339C442.22 245.82 442.922 246.65 443.241 247.647C443.56 248.645 443.47 249.728 442.991 250.659L439.174 258.062C438.938 258.523 438.612 258.934 438.215 259.268C437.819 259.603 437.36 259.856 436.866 260.013C436.475 260.138 436.067 260.202 435.656 260.203C435.029 260.202 434.411 260.051 433.854 259.763Z" fill="#6C63FF"/>
<path d="M415.043 230.006C415.531 229.816 416.051 229.725 416.573 229.739C417.096 229.753 417.611 229.871 418.087 230.086L438.306 241.265C440.519 242.487 442.177 244.513 442.939 246.923C443.701 249.334 443.507 251.944 442.399 254.216L442.146 254.093L442.399 254.216C441.34 256.388 439.522 258.095 437.288 259.014C435.054 259.934 432.561 260.002 430.28 259.206L408.353 251.542C407.878 251.332 407.449 251.031 407.091 250.656C406.733 250.28 406.452 249.838 406.265 249.354C406.077 248.87 405.987 248.353 406 247.834C406.012 247.316 406.127 246.804 406.337 246.33L412.856 232.092C412.97 231.835 413.11 231.59 413.276 231.362C413.722 230.749 414.336 230.278 415.043 230.006Z" fill="#2F2E41"/>
<path d="M461.565 226.591C478.243 226.591 491.764 213.07 491.764 196.391C491.764 179.712 478.243 166.191 461.565 166.191C444.886 166.191 431.365 179.712 431.365 196.391C431.365 213.07 444.886 226.591 461.565 226.591Z" fill="#6C63FF"/>
<path d="M457.859 384.21V314.795C457.86 313.748 458.277 312.744 459.017 312.003C459.758 311.263 460.762 310.846 461.809 310.845H470.137C471.184 310.846 472.188 311.263 472.929 312.003C473.669 312.744 474.086 313.748 474.087 314.795V384.21C474.086 385.257 473.669 386.261 472.929 387.001C472.188 387.742 471.184 388.158 470.137 388.159H461.809C460.762 388.158 459.758 387.742 459.017 387.001C458.277 386.261 457.86 385.257 457.859 384.21Z" fill="#6C63FF"/>
<path d="M439.802 384.21V314.795C439.803 313.748 440.219 312.744 440.96 312.003C441.701 311.263 442.705 310.846 443.752 310.845H452.08C453.127 310.846 454.131 311.263 454.872 312.003C455.612 312.744 456.029 313.748 456.03 314.795V384.21C456.029 385.257 455.612 386.261 454.872 387.001C454.131 387.742 453.127 388.158 452.08 388.159H443.752C442.705 388.158 441.701 387.742 440.96 387.001C440.219 386.261 439.803 385.257 439.802 384.21Z" fill="#6C63FF"/>
<path d="M462.199 207.584L462.23 206.455C460.131 206.397 458.28 206.265 456.889 205.249C456.495 204.945 456.171 204.559 455.939 204.118C455.707 203.677 455.573 203.191 455.545 202.694C455.521 202.39 455.567 202.084 455.68 201.801C455.793 201.518 455.969 201.264 456.196 201.06C457.119 200.281 458.605 200.533 459.688 201.03L460.621 201.458L458.831 188.372L457.713 188.525L459.236 199.656C457.764 199.224 456.401 199.41 455.467 200.199C455.109 200.512 454.827 200.903 454.645 201.343C454.463 201.783 454.385 202.259 454.418 202.733C454.451 203.402 454.629 204.055 454.941 204.647C455.253 205.239 455.691 205.755 456.223 206.16C458.01 207.466 460.333 207.531 462.199 207.584Z" fill="#2F2E41"/>
<path d="M452.183 189.485H446.105V190.614H452.183V189.485Z" fill="#2F2E41"/>
<path d="M471.369 189.485H465.29V190.614H471.369V189.485Z" fill="#2F2E41"/>
<path d="M490.464 326.281L480.019 257.657C479.862 256.622 480.123 255.566 480.744 254.723C481.364 253.88 482.294 253.317 483.329 253.158L491.563 251.905C492.598 251.748 493.654 252.009 494.497 252.63C495.341 253.25 495.903 254.18 496.062 255.215L506.507 323.839C506.664 324.875 506.403 325.93 505.782 326.774C505.162 327.617 504.232 328.18 503.197 328.339L494.963 329.592C494.45 329.67 493.927 329.647 493.423 329.523C492.919 329.399 492.445 329.177 492.027 328.87C491.609 328.562 491.256 328.175 490.988 327.731C490.719 327.287 490.541 326.794 490.464 326.281Z" fill="#6C63FF"/>
<path d="M482.391 282.235C481.952 281.952 481.573 281.585 481.277 281.154C480.98 280.723 480.773 280.237 480.667 279.725L477.835 256.796C477.524 254.287 478.189 251.755 479.692 249.722C481.195 247.69 483.421 246.312 485.911 245.875L485.96 246.152L485.911 245.874C488.29 245.456 490.74 245.924 492.796 247.192C494.853 248.459 496.373 250.436 497.068 252.75L503.749 274.996C503.859 275.504 503.867 276.028 503.773 276.538C503.68 277.049 503.487 277.536 503.205 277.972C502.924 278.408 502.559 278.784 502.132 279.079C501.705 279.374 501.223 279.581 500.716 279.69L485.365 282.779C485.09 282.839 484.809 282.869 484.527 282.869C483.769 282.868 483.027 282.648 482.391 282.235Z" fill="#2F2E41"/>
<path d="M483.202 331.837H402.497C401.678 331.836 400.874 331.627 400.159 331.228C399.444 330.829 398.843 330.254 398.414 329.557C397.984 328.86 397.74 328.065 397.705 327.247C397.67 326.43 397.844 325.616 398.212 324.885L437.231 247.29C439.942 241.898 444.393 237.579 449.863 235.031C455.334 232.482 461.504 231.854 467.376 233.247C473.247 234.64 478.478 237.974 482.22 242.708C485.962 247.442 487.998 253.301 487.998 259.335V327.04C487.997 328.312 487.491 329.531 486.592 330.43C485.693 331.329 484.474 331.835 483.202 331.837Z" fill="#2F2E41"/>
<path d="M462.634 171.475C456.452 172.856 451.238 176.885 445.022 178.138C442.189 178.709 439.07 178.685 436.468 177.291C434.542 176.245 433.068 174.525 432.329 172.461C431.599 170.35 431.411 168.089 431.782 165.886C432.154 163.683 433.073 161.609 434.455 159.854C437.945 155.583 443.508 153.615 448.846 153.06C459.528 151.95 470.5 155.47 479.194 161.602C488.172 167.933 495.058 177.44 497.368 188.259C498.603 194.043 498.482 200.195 496.373 205.765C494.345 211.094 490.354 215.444 485.218 217.922C483.992 218.513 482.714 218.989 481.4 219.343C481.191 219.409 481.015 219.554 480.91 219.746C480.804 219.939 480.778 220.165 480.837 220.377C480.895 220.589 481.033 220.77 481.222 220.881C481.411 220.993 481.637 221.027 481.85 220.976C487.625 219.399 492.606 215.731 495.826 210.684C499.133 205.394 500.243 198.918 499.733 192.763C498.748 180.857 492.201 169.914 483.048 162.423C474.255 155.226 462.881 150.847 451.444 151.194C445.709 151.369 439.755 152.825 435.295 156.604C433.373 158.23 431.885 160.307 430.965 162.65C430.045 164.993 429.721 167.528 430.024 170.027C430.28 172.365 431.208 174.578 432.696 176.4C434.515 178.455 437.036 179.757 439.765 180.051C446.528 180.931 452.392 177.098 458.367 174.634C459.893 173.991 461.471 173.481 463.084 173.108C464.147 172.87 463.697 171.238 462.634 171.475V171.475Z" fill="#2F2E41"/>
<path d="M479.62 159.511C477.192 150.422 483.529 140.963 492.138 138.124C497.079 136.586 502.378 136.645 507.283 138.293C512.065 139.911 516.359 142.715 519.764 146.442C527.311 154.471 530.654 165.307 532.219 175.991C533.834 187.022 532.922 199.104 538.567 209.128C540.907 213.284 544.381 216.924 548.869 218.713C553.056 220.383 558.073 220.39 562.084 218.22C563.05 217.692 563.942 217.04 564.739 216.281C565.533 215.532 564.335 214.336 563.542 215.084C560.183 218.254 555.177 218.852 550.859 217.608C546.15 216.251 542.525 212.632 540.137 208.464C537.375 203.645 536.225 198.136 535.597 192.671C534.913 186.704 534.649 180.706 533.734 174.763C532.085 164.046 528.521 153.288 520.961 145.245C517.504 141.489 513.192 138.62 508.392 136.882C503.45 135.112 498.095 134.842 493 136.105C488.369 137.304 484.286 140.049 481.428 143.886C478.651 147.527 477.239 152.027 477.437 156.603C477.51 157.738 477.694 158.863 477.988 159.961C478.053 160.171 478.198 160.347 478.391 160.452C478.584 160.557 478.81 160.583 479.021 160.525C479.233 160.467 479.414 160.328 479.525 160.139C479.637 159.95 479.671 159.725 479.62 159.511L479.62 159.511Z" fill="#2F2E41"/>
<path d="M229.969 263.67L159.793 259.074C158.686 259.002 157.605 258.713 156.61 258.223C155.615 257.733 154.727 257.052 153.995 256.218C153.264 255.385 152.703 254.415 152.347 253.365C151.99 252.315 151.844 251.205 151.916 250.099C151.989 248.992 152.279 247.911 152.769 246.916C153.26 245.922 153.941 245.033 154.775 244.302C155.609 243.571 156.579 243.012 157.629 242.656C158.68 242.3 159.79 242.154 160.896 242.227L231.072 246.823C232.118 246.892 233.095 247.373 233.786 248.161C234.477 248.949 234.827 249.98 234.759 251.026L234.172 259.983C234.106 260.984 233.663 261.922 232.932 262.608C232.2 263.294 231.236 263.677 230.233 263.678C230.145 263.678 230.057 263.675 229.969 263.67Z" fill="#6C63FF"/>
<path d="M216.246 264.83L158.539 262.673C158.02 262.654 157.51 262.533 157.038 262.316C156.566 262.1 156.142 261.793 155.788 261.412C155.435 261.031 155.161 260.585 154.98 260.098C154.799 259.612 154.716 259.094 154.736 258.575L155.236 245.197C155.275 244.149 155.729 243.16 156.497 242.447C157.266 241.733 158.286 241.355 159.334 241.394L217.041 243.551C217.56 243.57 218.07 243.691 218.542 243.908C219.014 244.124 219.438 244.431 219.792 244.812C220.145 245.192 220.419 245.639 220.6 246.126C220.781 246.612 220.864 247.13 220.844 247.648L220.344 261.027C220.305 262.049 219.872 263.015 219.136 263.725C218.4 264.434 217.418 264.831 216.395 264.833C216.346 264.833 216.296 264.832 216.246 264.83Z" fill="#2F2E41"/>
<path d="M144.818 384.206V309.392C144.82 308.344 145.236 307.339 145.978 306.598C146.719 305.857 147.723 305.44 148.772 305.439H157.748C158.796 305.44 159.801 305.857 160.542 306.598C161.283 307.339 161.7 308.344 161.701 309.392V384.206C161.7 385.254 161.283 386.259 160.542 387C159.801 387.742 158.796 388.158 157.748 388.16H148.771C147.723 388.158 146.719 387.742 145.978 387C145.236 386.259 144.82 385.254 144.818 384.206Z" fill="#2F2E41"/>
<path d="M183.185 347.282L144.405 283.303C143.863 282.406 143.698 281.331 143.948 280.313C144.198 279.295 144.841 278.417 145.737 277.873L153.413 273.22C154.31 272.678 155.385 272.514 156.403 272.763C157.421 273.013 158.298 273.656 158.843 274.552L197.623 338.531C198.165 339.428 198.329 340.503 198.08 341.521C197.83 342.539 197.187 343.416 196.291 343.96L188.615 348.613C187.718 349.156 186.642 349.32 185.625 349.07C184.607 348.821 183.729 348.177 183.185 347.282Z" fill="#2F2E41"/>
<path d="M162.405 227.362C179.535 227.362 193.422 213.475 193.422 196.345C193.422 179.215 179.535 165.328 162.405 165.328C145.275 165.328 131.388 179.215 131.388 196.345C131.388 213.475 145.275 227.362 162.405 227.362Z" fill="#6C63FF"/>
<path d="M179.194 206.935C180.192 206.607 181.108 206.07 181.881 205.358C182.392 204.851 182.787 204.237 183.037 203.56C183.287 202.884 183.385 202.161 183.326 201.442C183.294 200.93 183.144 200.433 182.887 199.988C182.63 199.544 182.274 199.165 181.847 198.881C180.738 198.17 179.254 198.168 177.744 198.833L177.801 186.725L176.585 186.719L176.518 200.954L177.455 200.364C178.541 199.682 180.094 199.202 181.19 199.905C181.461 200.091 181.686 200.337 181.846 200.624C182.007 200.911 182.099 201.231 182.116 201.559C182.157 202.094 182.082 202.632 181.896 203.136C181.711 203.64 181.419 204.098 181.04 204.479C179.697 205.762 177.738 206.163 175.503 206.521L175.696 207.722C176.883 207.565 178.054 207.302 179.194 206.935Z" fill="#2F2E41"/>
<path d="M190.34 186.113L183.845 186.971L184.004 188.176L190.499 187.319L190.34 186.113Z" fill="#2F2E41"/>
<path d="M169.84 188.82L163.345 189.677L163.504 190.883L169.999 190.025L169.84 188.82Z" fill="#2F2E41"/>
<path d="M131.336 324.295V263.161C131.345 255.748 134.293 248.64 139.536 243.397C144.778 238.155 151.886 235.206 159.3 235.198H177.862C179.226 235.197 180.535 235.736 181.503 236.697C182.472 237.658 183.02 238.964 183.029 240.328L193.978 324.295C193.977 325.666 193.432 326.98 192.463 327.949C191.493 328.918 190.179 329.463 188.809 329.465H136.506C135.135 329.463 133.821 328.918 132.852 327.949C131.883 326.98 131.338 325.666 131.336 324.295Z" fill="#2F2E41"/>
<path d="M92.5018 295.064L145.718 249.088C146.557 248.362 147.53 247.809 148.583 247.46C149.635 247.111 150.746 246.972 151.852 247.053C152.958 247.133 154.038 247.431 155.029 247.928C156.02 248.426 156.903 249.114 157.628 249.953C158.353 250.792 158.905 251.766 159.254 252.819C159.602 253.872 159.74 254.983 159.659 256.089C159.578 257.195 159.28 258.274 158.781 259.265C158.283 260.255 157.594 261.138 156.755 261.862L103.539 307.839C103.146 308.178 102.69 308.437 102.198 308.6C101.705 308.763 101.185 308.828 100.667 308.79C100.149 308.753 99.6438 308.613 99.1799 308.38C98.7161 308.147 98.3026 307.825 97.9633 307.432L92.0947 300.64C91.4093 299.846 91.0672 298.813 91.1435 297.767C91.2199 296.722 91.7084 295.749 92.5018 295.064Z" fill="#6C63FF"/>
<path d="M104.247 279.891L147.945 242.138C148.338 241.799 148.794 241.54 149.287 241.377C149.78 241.213 150.3 241.149 150.817 241.187C151.335 241.224 151.84 241.364 152.304 241.597C152.768 241.83 153.182 242.152 153.521 242.545L163.544 254.147C163.884 254.54 164.143 254.995 164.306 255.488C164.469 255.981 164.534 256.501 164.496 257.019C164.458 257.537 164.319 258.042 164.086 258.506C163.852 258.97 163.53 259.383 163.137 259.722L119.44 297.476C118.646 298.16 117.613 298.501 116.568 298.425C115.522 298.349 114.55 297.861 113.864 297.069L103.84 285.467C103.155 284.674 102.813 283.64 102.889 282.595C102.965 281.549 103.454 280.577 104.247 279.891Z" fill="#2F2E41"/>
<path d="M161.825 177.949C165.971 174.518 171.514 177.763 176.203 177.302C180.689 176.862 184.3 172.914 185.284 168.665C186.432 163.709 183.943 158.674 180.195 155.499C176.09 152.022 170.578 150.941 165.326 151.47C159.306 152.077 153.76 154.772 148.766 158.065C143.949 161.142 139.503 164.766 135.519 168.865C131.948 172.661 128.898 177.208 127.853 182.388C126.903 187.095 127.46 192.341 130.177 196.395C131.618 198.474 133.571 200.146 135.847 201.251C138.219 202.472 140.757 203.361 143.051 204.734C146.52 206.811 149.85 211.043 148.669 215.359C148.415 216.302 147.934 217.168 147.267 217.881C146.466 218.737 145.072 217.559 145.875 216.7C147.287 215.192 147.271 213.145 146.569 211.3C145.733 209.219 144.214 207.484 142.263 206.379C139.861 204.945 137.197 204.037 134.732 202.726C132.372 201.525 130.337 199.773 128.8 197.617C125.901 193.421 125.112 188.017 125.882 183.047C126.716 177.668 129.579 172.82 133.131 168.78C136.995 164.383 141.71 160.688 146.518 157.38C151.677 153.83 157.358 150.854 163.602 149.857C169.014 148.993 174.849 149.699 179.509 152.728C183.86 155.556 187.146 160.339 187.382 165.619C187.457 168.021 186.89 170.4 185.741 172.51C184.591 174.62 182.9 176.386 180.842 177.626C178.731 178.835 176.293 179.351 173.873 179.101C171.285 178.886 168.706 178.043 166.094 178.214C164.913 178.263 163.78 178.696 162.866 179.447C161.961 180.197 160.926 178.692 161.825 177.949L161.825 177.949Z" fill="#2F2E41"/>
<path d="M197.716 342.383L174.446 378.46C173.877 379.34 172.982 379.958 171.958 380.179C170.933 380.4 169.863 380.206 168.981 379.639L161.438 374.773C160.557 374.205 159.938 373.31 159.717 372.285C159.496 371.26 159.69 370.19 160.259 369.309L183.528 333.232C184.097 332.352 184.992 331.733 186.017 331.512C187.041 331.291 188.112 331.485 188.993 332.052L196.536 336.918C196.973 337.198 197.351 337.562 197.646 337.99C197.942 338.417 198.15 338.898 198.258 339.406C198.273 339.474 198.286 339.543 198.297 339.612C198.455 340.575 198.247 341.563 197.716 342.383Z" fill="#2F2E41"/>
<path d="M550.104 388.43H46.2002C46.0505 388.43 45.907 388.37 45.8012 388.264C45.6953 388.159 45.6359 388.015 45.6359 387.865C45.6359 387.716 45.6953 387.572 45.8012 387.466C45.907 387.361 46.0505 387.301 46.2002 387.301H550.104C550.253 387.301 550.397 387.361 550.503 387.466C550.608 387.572 550.668 387.716 550.668 387.865C550.668 388.015 550.608 388.159 550.503 388.264C550.397 388.37 550.253 388.43 550.104 388.43Z" fill="#3F3D56"/>
<path d="M228.039 166.667H224.653V177.388H228.039V166.667Z" fill="#F2F2F2"/>
<path d="M282.774 136.196H279.388V146.917H282.774V136.196Z" fill="#F2F2F2"/>
<path d="M268.91 169.036L266.261 171.145L272.938 179.533L275.587 177.425L268.91 169.036Z" fill="#F2F2F2"/>
<path d="M252.953 201.524L247.592 210.809L250.524 212.502L255.885 203.217L252.953 201.524Z" fill="#F2F2F2"/>
<path d="M237.717 97.1323L232.357 106.417L235.289 108.11L240.649 98.8251L237.717 97.1323Z" fill="#F2F2F2"/>
<path d="M325.095 280.088H321.709V290.809H325.095V280.088Z" fill="#F2F2F2"/>
<path d="M379.83 249.616H376.445V260.338H379.83V249.616Z" fill="#F2F2F2"/>
<path d="M365.967 282.457L363.318 284.566L369.995 292.954L372.644 290.846L365.967 282.457Z" fill="#F2F2F2"/>
<path d="M350.009 314.945L344.649 324.23L347.581 325.923L352.941 316.638L350.009 314.945Z" fill="#F2F2F2"/>
<path d="M334.774 210.553L329.413 219.838L332.345 221.531L337.706 212.246L334.774 210.553Z" fill="#F2F2F2"/>
<path d="M165.155 165.343L159.655 162.074L155.288 159.475L148.955 155.711L144.583 153.115L138.64 149.577C138.544 149.52 138.434 149.49 138.322 149.489C138.21 149.487 138.1 149.516 138.002 149.57C137.904 149.625 137.823 149.705 137.765 149.801C137.708 149.897 137.677 150.006 137.675 150.118L137.614 155.148L137.561 159.035L137.489 164.669L137.445 168.559L137.373 174.193L137.326 178.077L137.289 180.963C137.283 181.076 137.31 181.187 137.366 181.284C137.421 181.381 137.5 181.463 137.594 181.521C137.69 181.579 137.8 181.61 137.912 181.611C138.024 181.612 138.135 181.584 138.232 181.528L165.144 166.442C165.229 166.397 165.302 166.333 165.357 166.254C165.412 166.175 165.447 166.084 165.459 165.989C165.466 165.958 165.471 165.926 165.472 165.894C165.471 165.783 165.442 165.674 165.388 165.576C165.334 165.478 165.253 165.397 165.155 165.343Z" fill="#CCCCCC"/>
<path d="M148.955 155.711L137.562 159.035L137.614 155.148L144.584 153.115L148.955 155.711Z" fill="#3F3D56"/>
<path d="M159.654 162.074L137.445 168.559L137.489 164.669L155.288 159.475L159.654 162.074Z" fill="#3F3D56"/>
<path d="M165.459 165.989C165.447 166.084 165.412 166.175 165.357 166.254C165.302 166.333 165.229 166.397 165.144 166.442L152.06 173.777L137.326 178.077L137.373 174.193L165.459 165.989Z" fill="#3F3D56"/>
<path d="M136.758 152.44C139.568 152.44 141.847 150.161 141.847 147.351C141.847 144.54 139.568 142.262 136.758 142.262C133.947 142.262 131.669 144.54 131.669 147.351C131.669 150.161 133.947 152.44 136.758 152.44Z" fill="#CCCCCC"/>
</g>
<defs>
<clipPath id="clip0">
<rect width="565" height="388.43" fill="white"/>
</clipPath>
</defs>
</svg>
