<svg width="95" height="81" viewBox="0 0 95 81" fill="none" xmlns="http://www.w3.org/2000/svg">
<path d="M80.9234 27.6539C76.9122 24.6328 70.6296 21.7756 63.6865 19.8151C57.3649 18.03 51.199 17.1681 46.3232 17.3882L46.2979 16.817C51.2317 16.5944 57.4615 17.4635 63.8397 19.2645C70.8475 21.2433 77.1982 24.1343 81.2633 27.196L80.9234 27.6539Z" fill="#CCCCCC"/>
<path d="M80.507 29.9811C80.5106 32.6578 79.9536 35.3051 78.8724 37.7501C78.7822 37.9548 78.6882 38.1576 78.5904 38.3585C76.7099 42.2388 73.5799 45.3627 69.7108 47.2207C65.8417 49.0786 61.4619 49.561 57.2858 48.5891C53.1096 47.6172 49.3836 45.2484 46.7154 41.869C44.0472 38.4897 42.5943 34.2992 42.5937 29.9811C42.5937 29.5391 42.6086 29.1005 42.6385 28.6654C42.6527 28.4441 42.6711 28.2242 42.6936 28.0055C43.1963 23.1378 45.5346 18.6503 49.2259 15.4689C52.9173 12.2876 57.68 10.6552 62.5312 10.9086C67.3824 11.1621 71.952 13.282 75.2969 16.831C78.6418 20.38 80.5068 25.0871 80.507 29.9811V29.9811Z" fill="#6C63FF"/>
<path opacity="0.1" d="M78.8725 37.7501C78.7822 37.9548 78.6882 38.1576 78.5904 38.3585C78.0364 38.4191 77.4533 38.4631 76.8411 38.4906C76.3343 38.5134 75.8127 38.5249 75.2798 38.5249C70.6246 38.5249 65.0222 37.6592 59.2988 36.0433C52.9205 34.2421 47.1501 31.7228 43.05 28.949C42.9104 28.8546 42.7732 28.7601 42.6385 28.6653C42.6527 28.4441 42.6711 28.2241 42.6936 28.0055C42.911 28.1616 43.1352 28.3179 43.3661 28.4744C47.418 31.215 53.1305 33.7075 59.4521 35.4926C65.1255 37.0948 70.6751 37.9531 75.2769 37.9531C75.8031 37.9531 76.3159 37.9418 76.8156 37.9193C77.5432 37.8862 78.2288 37.8298 78.8725 37.7501Z" fill="black"/>
<path d="M75.2798 38.0676C70.6248 38.0677 65.022 37.2019 59.299 35.5858C52.9207 33.7848 47.15 31.2653 43.0499 28.4916C38.8642 25.66 36.9014 22.8699 37.5232 20.6351C38.1449 18.4004 41.2611 17.0445 46.2979 16.8171L46.3232 17.3883C43.9711 17.4945 42.0543 17.8467 40.6259 18.4351C39.201 19.0221 38.341 19.8143 38.0697 20.7895C37.7983 21.7647 38.1245 22.8917 39.039 24.1393C39.9557 25.39 41.4116 26.6945 43.3663 28.0169C47.4177 30.7576 53.1304 33.2502 59.4522 35.0353C65.1257 36.6373 70.6748 37.4958 75.277 37.4959C75.8029 37.4959 76.3157 37.4846 76.8154 37.4621C79.1675 37.3559 81.0844 37.0037 82.5128 36.4153C83.9377 35.8283 84.7977 35.0362 85.069 34.061C85.5562 32.3098 84.0839 30.0345 80.9234 27.654L81.2633 27.1961C82.8897 28.4211 84.0936 29.6285 84.8416 30.7848C85.6435 32.0245 85.9039 33.1787 85.6155 34.2153C84.9938 36.45 81.8775 37.8059 76.8408 38.0333C76.334 38.0562 75.8127 38.0676 75.2798 38.0676Z" fill="#CCCCCC"/>
<path d="M62.0518 7.43861C62.1718 7.43861 62.269 7.34063 62.269 7.21976C62.269 7.0989 62.1718 7.00092 62.0518 7.00092C61.9318 7.00092 61.8346 7.0989 61.8346 7.21976C61.8346 7.34063 61.9318 7.43861 62.0518 7.43861Z" fill="#F2F2F2"/>
<path d="M33.2333 16.935C33.4397 16.935 33.607 16.7665 33.607 16.5586C33.607 16.3506 33.4397 16.1821 33.2333 16.1821C33.0269 16.1821 32.8596 16.3506 32.8596 16.5586C32.8596 16.7665 33.0269 16.935 33.2333 16.935Z" fill="#CCCCCC"/>
<path d="M32.4369 32.0379C32.8446 32.0379 33.1751 31.7049 33.1751 31.2942C33.1751 30.8834 32.8446 30.5504 32.4369 30.5504C32.0291 30.5504 31.6986 30.8834 31.6986 31.2942C31.6986 31.7049 32.0291 32.0379 32.4369 32.0379Z" fill="#CCCCCC"/>
<path d="M76.7507 9.02842C77.0224 9.02842 77.2427 8.8065 77.2427 8.53274C77.2427 8.25898 77.0224 8.03705 76.7507 8.03705C76.479 8.03705 76.2587 8.25898 76.2587 8.53274C76.2587 8.8065 76.479 9.02842 76.7507 9.02842Z" fill="#CCCCCC"/>
<path d="M94.2011 29.9104C94.6423 29.9104 95 29.5501 95 29.1056C95 28.6611 94.6423 28.3008 94.2011 28.3008C93.76 28.3008 93.4023 28.6611 93.4023 29.1056C93.4023 29.5501 93.76 29.9104 94.2011 29.9104Z" fill="#CCCCCC"/>
<path d="M87.9545 16.5969C88.1438 16.5969 88.2972 16.4423 88.2972 16.2516C88.2972 16.0609 88.1438 15.9063 87.9545 15.9063C87.7652 15.9063 87.6118 16.0609 87.6118 16.2516C87.6118 16.4423 87.7652 16.5969 87.9545 16.5969Z" fill="#CCCCCC"/>
<path d="M46.3392 12.3543C46.6345 12.3543 46.8739 12.1131 46.8739 11.8156C46.8739 11.5181 46.6345 11.2769 46.3392 11.2769C46.0439 11.2769 45.8045 11.5181 45.8045 11.8156C45.8045 12.1131 46.0439 12.3543 46.3392 12.3543Z" fill="#CCCCCC"/>
<path d="M86.7549 27.8191C86.9442 27.8191 87.0977 27.6645 87.0977 27.4738C87.0977 27.2831 86.9442 27.1285 86.7549 27.1285C86.5656 27.1285 86.4122 27.2831 86.4122 27.4738C86.4122 27.6645 86.5656 27.8191 86.7549 27.8191Z" fill="#CCCCCC"/>
<path d="M34.1746 42.2284C34.4102 42.2284 34.6012 42.036 34.6012 41.7987C34.6012 41.5613 34.4102 41.3689 34.1746 41.3689C33.939 41.3689 33.748 41.5613 33.748 41.7987C33.748 42.036 33.939 42.2284 34.1746 42.2284Z" fill="#CCCCCC"/>
<path d="M42.7912 48.2458C43.0463 48.2458 43.2532 48.0375 43.2532 47.7804C43.2532 47.5234 43.0463 47.315 42.7912 47.315C42.536 47.315 42.3292 47.5234 42.3292 47.7804C42.3292 48.0375 42.536 48.2458 42.7912 48.2458Z" fill="#CCCCCC"/>
<path d="M56.2208 0.918453H55.3091V0H54.82V0.918453H53.908V1.41161H54.82V2.33007H55.3091V1.41161H56.2208V0.918453Z" fill="#CCCCCC"/>
<path d="M77.3681 50.6153H76.7955V50.0386H76.4884V50.6153H75.9161V50.9247H76.4884V51.5014H76.7955V50.9247H77.3681V50.6153Z" fill="#CCCCCC"/>
<path d="M90.5804 47.6634H90.1525V47.2323H89.9227V47.6634H89.4948V47.8949H89.9227V48.326H90.1525V47.8949H90.5804V47.6634Z" fill="#CCCCCC"/>
<path opacity="0.1" d="M61.8346 16.6314C62.7144 16.6314 63.4276 15.9129 63.4276 15.0266C63.4276 14.1402 62.7144 13.4217 61.8346 13.4217C60.9548 13.4217 60.2416 14.1402 60.2416 15.0266C60.2416 15.9129 60.9548 16.6314 61.8346 16.6314Z" fill="black"/>
<path opacity="0.1" d="M49.5976 28.3762C50.4774 28.3762 51.1906 27.6577 51.1906 26.7713C51.1906 25.885 50.4774 25.1664 49.5976 25.1664C48.7178 25.1664 48.0046 25.885 48.0046 26.7713C48.0046 27.6577 48.7178 28.3762 49.5976 28.3762Z" fill="black"/>
<path opacity="0.1" d="M67.1929 44.4977C68.0726 44.4977 68.7858 43.7792 68.7858 42.8929C68.7858 42.0065 68.0726 41.288 67.1929 41.288C66.3131 41.288 65.5999 42.0065 65.5999 42.8929C65.5999 43.7792 66.3131 44.4977 67.1929 44.4977Z" fill="black"/>
<path opacity="0.1" d="M61.8346 30.8565C62.7144 30.8565 63.4276 30.1379 63.4276 29.2516C63.4276 28.3653 62.7144 27.6467 61.8346 27.6467C60.9548 27.6467 60.2416 28.3653 60.2416 29.2516C60.2416 30.1379 60.9548 30.8565 61.8346 30.8565Z" fill="black"/>
<path opacity="0.1" d="M50.3941 39.6832C51.2739 39.6832 51.9871 38.9647 51.9871 38.0783C51.9871 37.192 51.2739 36.4734 50.3941 36.4734C49.5143 36.4734 48.8011 37.192 48.8011 38.0783C48.8011 38.9647 49.5143 39.6832 50.3941 39.6832Z" fill="black"/>
<path opacity="0.1" d="M70.3788 22.2485C71.2586 22.2485 71.9718 21.53 71.9718 20.6436C71.9718 19.7573 71.2586 19.0388 70.3788 19.0388C69.499 19.0388 68.7858 19.7573 68.7858 20.6436C68.7858 21.53 69.499 22.2485 70.3788 22.2485Z" fill="black"/>
<path opacity="0.1" d="M75.6646 33.1179C76.5444 33.1179 77.2576 32.3994 77.2576 31.513C77.2576 30.6267 76.5444 29.9081 75.6646 29.9081C74.7848 29.9081 74.0716 30.6267 74.0716 31.513C74.0716 32.3994 74.7848 33.1179 75.6646 33.1179Z" fill="black"/>
<path d="M61.8346 24.364C62.9943 24.364 63.9345 23.4169 63.9345 22.2485C63.9345 21.0801 62.9943 20.133 61.8346 20.133C60.6749 20.133 59.7348 21.0801 59.7348 22.2485C59.7348 23.4169 60.6749 24.364 61.8346 24.364Z" fill="white"/>
<path d="M61.8346 19.1846C61.0473 19.1846 60.2922 19.4997 59.7354 20.0606C59.1787 20.6215 58.8659 21.3823 58.8659 22.1755C58.8659 23.8273 61.8346 29.2515 61.8346 29.2515C61.8346 29.2515 64.8034 23.8273 64.8034 22.1755C64.8034 21.3823 64.4906 20.6215 63.9339 20.0606C63.3771 19.4997 62.622 19.1846 61.8346 19.1846ZM61.8346 23.6345C61.5625 23.6345 61.2966 23.5532 61.0703 23.4009C60.8441 23.2486 60.6677 23.0321 60.5636 22.7789C60.4595 22.5256 60.4322 22.2469 60.4853 21.9781C60.5384 21.7092 60.6694 21.4622 60.8618 21.2684C61.0542 21.0746 61.2994 20.9426 61.5663 20.8891C61.8331 20.8356 62.1097 20.863 62.3611 20.9679C62.6125 21.0728 62.8274 21.2505 62.9785 21.4784C63.1297 21.7064 63.2104 21.9743 63.2104 22.2485C63.2104 22.4305 63.1748 22.6107 63.1057 22.7789C63.0365 22.947 62.9352 23.0998 62.8075 23.2285C62.6797 23.3572 62.528 23.4593 62.3611 23.529C62.1942 23.5986 62.0153 23.6345 61.8346 23.6345Z" fill="#CCCCCC"/>
<path d="M50.3941 33.4097C51.5538 33.4097 52.494 32.4625 52.494 31.2942C52.494 30.1258 51.5538 29.1786 50.3941 29.1786C49.2344 29.1786 48.2943 30.1258 48.2943 31.2942C48.2943 32.4625 49.2344 33.4097 50.3941 33.4097Z" fill="white"/>
<path d="M50.3941 28.2303C49.6067 28.2303 48.8516 28.5455 48.2949 29.1064C47.7381 29.6673 47.4253 30.428 47.4253 31.2212C47.4253 32.873 50.3941 38.2972 50.3941 38.2972C50.3941 38.2972 53.3628 32.873 53.3628 31.2212C53.3628 30.8285 53.286 30.4395 53.1369 30.0767C52.9877 29.7138 52.769 29.3841 52.4933 29.1064C52.2176 28.8286 51.8904 28.6083 51.5302 28.458C51.17 28.3077 50.784 28.2303 50.3941 28.2303ZM50.3941 32.6802C50.122 32.6802 49.856 32.5989 49.6298 32.4466C49.4035 32.2943 49.2272 32.0778 49.123 31.8246C49.0189 31.5713 48.9917 31.2926 49.0448 31.0238C49.0978 30.7549 49.2289 30.5079 49.4213 30.3141C49.6137 30.1203 49.8588 29.9883 50.1257 29.9348C50.3926 29.8813 50.6692 29.9088 50.9206 30.0137C51.172 30.1186 51.3868 30.2962 51.538 30.5241C51.6892 30.7521 51.7699 31.02 51.7699 31.2942C51.7699 31.4762 51.7343 31.6564 51.6651 31.8246C51.596 31.9927 51.4947 32.1455 51.3669 32.2742C51.2392 32.4029 51.0875 32.505 50.9206 32.5747C50.7537 32.6443 50.5748 32.6802 50.3941 32.6802Z" fill="#CCCCCC"/>
<path d="M75.6646 26.8442C76.8243 26.8442 77.7645 25.8971 77.7645 24.7287C77.7645 23.5604 76.8243 22.6132 75.6646 22.6132C74.5049 22.6132 73.5648 23.5604 73.5648 24.7287C73.5648 25.8971 74.5049 26.8442 75.6646 26.8442Z" fill="white"/>
<path d="M75.6646 21.665C75.2747 21.665 74.8887 21.7423 74.5285 21.8926C74.1683 22.043 73.841 22.2633 73.5654 22.541C73.2897 22.8187 73.071 23.1484 72.9218 23.5113C72.7726 23.8742 72.6958 24.2631 72.6958 24.6559C72.6958 26.3077 75.6646 31.7319 75.6646 31.7319C75.6646 31.7319 78.6333 26.3077 78.6333 24.6559C78.6333 24.2631 78.5565 23.8742 78.4073 23.5113C78.2581 23.1484 78.0395 22.8187 77.7638 22.541C77.4881 22.2633 77.1608 22.043 76.8007 21.8926C76.4405 21.7423 76.0544 21.665 75.6646 21.665ZM75.6646 26.1148C75.3925 26.1148 75.1265 26.0335 74.9002 25.8812C74.674 25.7289 74.4977 25.5125 74.3935 25.2592C74.2894 25.006 74.2622 24.7273 74.3153 24.4584C74.3683 24.1895 74.4994 23.9426 74.6918 23.7487C74.8842 23.5549 75.1293 23.4229 75.3962 23.3694C75.6631 23.3159 75.9397 23.3434 76.1911 23.4483C76.4424 23.5532 76.6573 23.7308 76.8085 23.9588C76.9597 24.1867 77.0403 24.4547 77.0403 24.7288C77.0403 24.9108 77.0048 25.0911 76.9356 25.2592C76.8665 25.4274 76.7651 25.5802 76.6374 25.7089C76.5096 25.8376 76.358 25.9397 76.1911 26.0093C76.0241 26.079 75.8452 26.1148 75.6646 26.1148Z" fill="#CCCCCC"/>
<path d="M61.8346 10.1391C62.9943 10.1391 63.9345 9.19195 63.9345 8.02359C63.9345 6.85523 62.9943 5.90808 61.8346 5.90808C60.6749 5.90808 59.7348 6.85523 59.7348 8.02359C59.7348 9.19195 60.6749 10.1391 61.8346 10.1391Z" fill="white"/>
<path d="M61.8346 4.95972C61.0473 4.95972 60.2922 5.27483 59.7354 5.83573C59.1787 6.39663 58.8659 7.15737 58.8659 7.9506C58.8659 9.60242 61.8346 15.0266 61.8346 15.0266C61.8346 15.0266 64.8034 9.60242 64.8034 7.9506C64.8034 7.15737 64.4906 6.39662 63.9339 5.83572C63.3771 5.27483 62.622 4.95972 61.8346 4.95972ZM61.8346 9.40957C61.5625 9.40957 61.2966 9.32828 61.0703 9.17598C60.8441 9.02369 60.6677 8.80722 60.5636 8.55395C60.4595 8.30069 60.4322 8.02201 60.4853 7.75315C60.5384 7.48428 60.6694 7.23732 60.8618 7.04348C61.0542 6.84964 61.2994 6.71764 61.5663 6.66416C61.8331 6.61068 62.1097 6.63812 62.3611 6.74303C62.6125 6.84793 62.8274 7.02559 62.9785 7.25352C63.1297 7.48145 63.2104 7.74942 63.2104 8.02355C63.2104 8.20556 63.1748 8.3858 63.1057 8.55396C63.0365 8.72212 62.9352 8.87491 62.8075 9.00362C62.6797 9.13232 62.528 9.23442 62.3611 9.30407C62.1942 9.37372 62.0153 9.40957 61.8346 9.40957Z" fill="#CCCCCC"/>
<path d="M67.1928 38.2242C68.3525 38.2242 69.2926 37.2771 69.2926 36.1087C69.2926 34.9404 68.3525 33.9932 67.1928 33.9932C66.0331 33.9932 65.093 34.9404 65.093 36.1087C65.093 37.2771 66.0331 38.2242 67.1928 38.2242Z" fill="white"/>
<path d="M67.1928 33.0449C66.4055 33.0449 65.6504 33.36 65.0936 33.9209C64.5369 34.4818 64.2241 35.2425 64.2241 36.0357C64.2241 37.6876 67.1928 43.1117 67.1928 43.1117C67.1928 43.1117 70.1616 37.6876 70.1616 36.0357C70.1616 35.643 70.0848 35.254 69.9356 34.8912C69.7864 34.5283 69.5677 34.1986 69.292 33.9209C69.0164 33.6431 68.6891 33.4228 68.3289 33.2725C67.9687 33.1222 67.5827 33.0449 67.1928 33.0449ZM67.1928 37.4947C66.9207 37.4947 66.6547 37.4134 66.4285 37.2611C66.2023 37.1088 66.0259 36.8924 65.9218 36.6391C65.8177 36.3858 65.7904 36.1072 65.8435 35.8383C65.8966 35.5694 66.0276 35.3225 66.22 35.1286C66.4124 34.9348 66.6576 34.8028 66.9244 34.7493C67.1913 34.6958 67.4679 34.7233 67.7193 34.8282C67.9707 34.9331 68.1856 35.1107 68.3367 35.3387C68.4879 35.5666 68.5686 35.8346 68.5686 36.1087C68.5686 36.2907 68.533 36.4709 68.4639 36.6391C68.3947 36.8073 68.2934 36.9601 68.1657 37.0888C68.0379 37.2175 67.8862 37.3196 67.7193 37.3892C67.5524 37.4589 67.3735 37.4947 67.1928 37.4947Z" fill="#3F3D56"/>
<path d="M49.5976 21.9567C50.7573 21.9567 51.6974 21.0095 51.6974 19.8412C51.6974 18.6728 50.7573 17.7256 49.5976 17.7256C48.4379 17.7256 47.4978 18.6728 47.4978 19.8412C47.4978 21.0095 48.4379 21.9567 49.5976 21.9567Z" fill="white"/>
<path d="M49.5976 16.7774C48.8103 16.7774 48.0552 17.0925 47.4984 17.6534C46.9417 18.2143 46.6289 18.9751 46.6289 19.7683C46.6289 21.4201 49.5976 26.8443 49.5976 26.8443C49.5976 26.8443 52.5664 21.4201 52.5664 19.7683C52.5664 18.9751 52.2536 18.2143 51.6968 17.6534C51.1401 17.0925 50.385 16.7774 49.5976 16.7774ZM49.5976 21.2273C49.3255 21.2273 49.0595 21.146 48.8333 20.9937C48.6071 20.8414 48.4307 20.6249 48.3266 20.3716C48.2225 20.1184 48.1952 19.8397 48.2483 19.5708C48.3014 19.302 48.4324 19.055 48.6248 18.8612C48.8172 18.6673 49.0624 18.5353 49.3292 18.4818C49.5961 18.4284 49.8727 18.4558 50.1241 18.5607C50.3755 18.6656 50.5904 18.8433 50.7415 19.0712C50.8927 19.2991 50.9734 19.5671 50.9734 19.8412C50.9734 20.0232 50.9378 20.2035 50.8687 20.3716C50.7995 20.5398 50.6982 20.6926 50.5704 20.8213C50.4427 20.95 50.291 21.0521 50.1241 21.1218C49.9572 21.1914 49.7783 21.2273 49.5976 21.2273Z" fill="#3F3D56"/>
<path d="M70.3788 16.0478C71.5385 16.0478 72.4786 15.1007 72.4786 13.9323C72.4786 12.764 71.5385 11.8168 70.3788 11.8168C69.219 11.8168 68.2789 12.764 68.2789 13.9323C68.2789 15.1007 69.219 16.0478 70.3788 16.0478Z" fill="white"/>
<path d="M70.3788 10.8685C69.5914 10.8685 68.8363 11.1836 68.2796 11.7445C67.7228 12.3054 67.4101 13.0661 67.4101 13.8593C67.4101 15.5112 70.3788 20.9354 70.3788 20.9354C70.3788 20.9354 73.3475 15.5112 73.3475 13.8593C73.3475 13.0661 73.0348 12.3054 72.478 11.7445C71.9213 11.1836 71.1662 10.8685 70.3788 10.8685ZM70.3788 15.3183C70.1067 15.3183 69.8407 15.237 69.6145 15.0847C69.3882 14.9324 69.2119 14.716 69.1078 14.4627C69.0036 14.2094 68.9764 13.9308 69.0295 13.6619C69.0826 13.393 69.2136 13.1461 69.406 12.9522C69.5984 12.7584 69.8435 12.6264 70.1104 12.5729C70.3773 12.5194 70.6539 12.5469 70.9053 12.6518C71.1567 12.7567 71.3715 12.9343 71.5227 13.1623C71.6739 13.3902 71.7546 13.6582 71.7546 13.9323C71.7546 14.2999 71.6096 14.6524 71.3516 14.9124C71.0936 15.1723 70.7437 15.3183 70.3788 15.3183V15.3183Z" fill="#3F3D56"/>
<path d="M25.9106 78.7445L27.5819 78.5533L27.6457 71.9681L25.1791 72.2502L25.9106 78.7445Z" fill="#FFB8B8"/>
<path d="M30.9811 79.7482L25.7286 80.3487L25.4984 78.3042L28.7215 77.9358C29.2597 77.8742 29.8001 78.0306 30.2239 78.3705C30.6477 78.7104 30.92 79.206 30.9811 79.7482Z" fill="#2F2E41"/>
<path d="M8.72305 78.6392L10.405 78.639L11.2052 72.103L8.72278 72.1032L8.72305 78.6392Z" fill="#FFB8B8"/>
<path d="M13.6489 80.2125L8.36274 80.2127L8.36265 78.1551L11.6064 78.1549C12.1481 78.1549 12.6676 78.3717 13.0506 78.7575C13.4337 79.1434 13.6489 79.6668 13.6489 80.2125Z" fill="#2F2E41"/>
<path d="M20.7908 49.4108L21.7512 52.5579L26.9645 63.9236L28.3365 74.7045L25.181 74.8427L23.2603 64.8911L16.675 57.7038L10.9129 76.5013L8.30619 76.2249C8.30619 76.2249 10.5013 51.8987 13.5196 49.4108C13.5196 49.4108 18.4585 47.0611 20.7908 49.4108Z" fill="#2F2E41"/>
<path d="M16.5308 35.8314C18.3918 35.8314 19.9004 34.3115 19.9004 32.4367C19.9004 30.5618 18.3918 29.0419 16.5308 29.0419C14.6698 29.0419 13.1612 30.5618 13.1612 32.4367C13.1612 34.3115 14.6698 35.8314 16.5308 35.8314Z" fill="#FFB8B8"/>
<path d="M21.1338 50.0327C21.1338 50.0327 21.5453 35.9346 15.7832 36.9021C10.0211 37.8696 12.422 51.484 12.422 51.484C12.422 51.484 13.6567 53.9719 16.675 51.2076C19.6932 48.4432 21.1338 50.0327 21.1338 50.0327Z" fill="#CCCCCC"/>
<path opacity="0.2" d="M13.1766 42.8454L14.5325 48.0815L16.5983 50.1627L13.7254 49.2034L13.1766 42.8454Z" fill="black"/>
<path d="M21.1764 55.9951C20.9868 55.9259 20.8146 55.8156 20.6719 55.672C20.5291 55.5284 20.4194 55.3551 20.3504 55.1642C20.2814 54.9732 20.2547 54.7694 20.2724 54.567C20.29 54.3646 20.3515 54.1685 20.4524 53.9926L17.2477 50.2548L19.7741 49.9235L22.43 53.5238C22.712 53.7143 22.9149 54.0024 23.0002 54.3335C23.0855 54.6646 23.0473 55.0158 22.8928 55.3204C22.7382 55.625 22.4782 55.862 22.1618 55.9863C21.8455 56.1107 21.4949 56.1138 21.1764 55.9951Z" fill="#FFB8B8"/>
<path d="M17.2745 39.7736L17.6353 46.9228L21.8883 52.4515L20.1048 53.8337L14.3427 48.0285C14.3427 48.0285 12.2848 40.9795 13.7939 38.9062C14.3598 38.1287 14.9836 37.9149 15.5423 37.9514C16.002 37.9899 16.4318 38.1965 16.7509 38.5321C17.0699 38.8677 17.2561 39.3093 17.2745 39.7736Z" fill="#CCCCCC"/>
<path d="M16.13 36.0037C16.1461 35.9891 16.1586 35.971 16.1666 35.9508C16.1745 35.9305 16.1776 35.9087 16.1757 35.887C16.1738 35.8653 16.1669 35.8443 16.1556 35.8258C16.1442 35.8073 16.1288 35.7917 16.1104 35.7802C15.8112 35.5935 15.5674 35.3291 15.4046 35.0147C15.2419 34.7003 15.1662 34.3475 15.1855 33.9935C15.2048 33.6394 15.3184 33.2971 15.5144 33.0026C15.7103 32.7081 15.9814 32.4721 16.2992 32.3196C17.2899 31.8437 18.6323 32.2139 19.3646 31.2995C19.5136 31.1039 19.6189 30.8782 19.6734 30.6378C19.7279 30.3974 19.7304 30.1481 19.6806 29.9067C19.5225 29.043 18.8781 28.4016 18.1563 27.962C17.2697 27.422 16.2507 27.143 15.2147 27.1566C14.1788 27.1702 13.1673 27.4758 12.2949 28.0388C11.4225 28.6019 10.7241 29.3998 10.2788 30.3422C9.83344 31.2846 9.65902 32.3339 9.77526 33.3711C9.86842 34.2023 10.123 35.1344 9.6324 35.8093C9.20061 36.4033 8.38556 36.5147 7.66961 36.6622C6.13398 36.9788 4.65249 37.7091 3.61039 38.8887C2.56828 40.0683 2.01235 41.7233 2.32655 43.2703C2.64074 44.8174 3.90126 46.1771 5.45053 46.4169C6.71157 46.6121 8.01367 46.0725 8.93971 45.1884C9.86575 44.3042 10.4511 43.1102 10.8203 41.8799C11.2585 40.4195 11.4314 38.846 12.2225 37.5451C12.9967 36.2722 14.6651 35.3597 15.9727 36.0226C15.9978 36.0358 16.0262 36.0411 16.0543 36.0377C16.0824 36.0343 16.1088 36.0224 16.13 36.0037Z" fill="#2F2E41"/>
<path d="M42.2557 80.3846H0.137194C0.100808 80.3846 0.0659118 80.3701 0.040183 80.3442C0.0144542 80.3182 0 80.2831 0 80.2464C0 80.2098 0.0144542 80.1746 0.040183 80.1487C0.0659118 80.1228 0.100808 80.1082 0.137194 80.1082H42.2557C42.292 80.1082 42.3269 80.1228 42.3527 80.1487C42.3784 80.1746 42.3929 80.2098 42.3929 80.2464C42.3929 80.2831 42.3784 80.3182 42.3527 80.3442C42.3269 80.3701 42.292 80.3846 42.2557 80.3846Z" fill="#3F3D56"/>
</svg>
