<svg width="77" height="71" viewBox="0 0 77 71" fill="none" xmlns="http://www.w3.org/2000/svg">
<g clip-path="url(#clip0)">
<path d="M63.1449 55.5022C63.1436 55.6694 63.1396 55.8352 63.1329 56.0024C60.7443 59.1855 57.8388 61.9456 54.5371 64.1676C54.156 64.4257 53.77 64.6744 53.3791 64.9138C50.453 66.7175 47.2741 68.0746 43.9475 68.9402C43.7723 68.9857 43.5971 69.0298 43.422 69.0726C43.2963 69.1034 43.1692 69.1341 43.0422 69.1609C42.9646 69.1542 42.8884 69.1475 42.8122 69.1408C42.8082 69.1395 42.8028 69.1395 42.7988 69.1381C42.768 69.1355 42.7373 69.1328 42.7079 69.1314C42.5768 69.1194 42.4457 69.106 42.3147 69.094L42.3454 69.1528L42.423 69.2999H42.4217C42.3936 69.2518 42.3655 69.2023 42.3388 69.1528C42.3281 69.1354 42.3161 69.1167 42.3067 69.098C42.2973 69.082 42.288 69.0646 42.2786 69.0485C41.0858 66.9731 39.9103 64.8215 39.6094 62.4533C39.2952 59.974 40.1778 57.1685 42.3588 55.9502C42.645 55.7915 42.9476 55.6646 43.2614 55.5718C43.3925 55.533 43.5249 55.5009 43.6586 55.4715C44.4766 55.29 45.3282 55.3296 46.1257 55.5863C46.9233 55.8429 47.6381 56.3074 48.1967 56.9319C48.7553 57.5564 49.1375 58.3184 49.304 59.1395C49.4705 59.9607 49.4153 60.8114 49.144 61.6041C50.9934 59.7079 50.6484 56.6322 50.0105 54.062C49.3713 51.4905 48.5984 48.6302 49.8982 46.3221C50.6203 45.0356 51.8907 44.2386 53.3175 43.9177C53.3603 43.9083 53.4045 43.899 53.4486 43.891C55.1477 43.5466 56.9142 43.8561 58.3951 44.7575C61.1217 46.4759 62.5218 49.7334 62.9765 52.9241C63.0977 53.778 63.154 54.6398 63.1449 55.5022Z" fill="white"/>
<path d="M44.6469 57.1084C45.6529 59.1541 45.9741 61.4693 45.5628 63.7117C45.2002 65.629 44.3282 67.4134 43.0381 68.8774C42.9646 68.9617 42.8897 69.0432 42.8135 69.1235C42.9365 69.1155 43.0609 69.1048 43.1839 69.0941C43.2628 69.0874 43.3431 69.0807 43.4219 69.0727C43.2962 69.1034 43.1692 69.1342 43.0422 69.1609C42.9646 69.1542 42.8884 69.1476 42.8122 69.1409C42.8082 69.1395 42.8028 69.1395 42.7988 69.1382C42.768 69.1355 42.7373 69.1328 42.7079 69.1315C42.5768 69.1195 42.4457 69.1061 42.3147 69.0941L42.3454 69.1529L42.423 69.3H42.4217C42.3936 69.2519 42.3655 69.2024 42.3388 69.1529C42.3281 69.1355 42.316 69.1168 42.3067 69.0981C42.3307 69.0753 42.3535 69.0513 42.3762 69.0272C44.1238 67.2694 45.1761 64.9386 45.3388 62.4653C45.5015 59.992 44.7636 57.5434 43.2614 55.5719C43.3925 55.5331 43.5249 55.501 43.6586 55.4716C44.035 55.9874 44.3657 56.5351 44.6469 57.1084Z" fill="white"/>
<path d="M56.6821 58.5914C56.5749 59.7245 56.3028 60.8359 55.8744 61.8904C55.6417 62.4456 55.3579 62.9778 55.0265 63.4804C54.8741 63.7157 54.7097 63.9457 54.5371 64.1677C54.156 64.4258 53.77 64.6745 53.3791 64.9139C53.6307 64.6611 53.8686 64.3951 54.0918 64.1169C54.2162 63.9671 54.3339 63.8133 54.4475 63.6569C55.7193 61.9038 56.2795 59.7936 56.3759 57.65C56.4775 55.3539 56.1793 53.0178 55.6551 50.7859C55.1208 48.4969 54.3079 46.2819 53.2346 44.1906C53.2107 44.1432 53.2059 44.0884 53.2214 44.0376C53.2368 43.9868 53.2713 43.9439 53.3176 43.9178C53.3561 43.8922 53.4031 43.8826 53.4486 43.8911C53.471 43.8967 53.4917 43.9075 53.5091 43.9226C53.5265 43.9377 53.5402 43.9567 53.5489 43.978C53.6813 44.2361 53.8123 44.4942 53.9367 44.7563C54.9778 46.9333 55.7442 49.2314 56.218 51.5976C56.678 53.8803 56.9241 56.2673 56.6821 58.5914Z" fill="white"/>
<path d="M24.8837 68.5805C24.9319 68.4962 24.98 68.412 25.0268 68.3277C25.9188 66.7605 26.7572 65.1344 26.9832 63.3559C27.236 61.3607 26.5259 59.1021 24.7701 58.1219C24.5397 57.9935 24.2957 57.8912 24.0426 57.817C23.9383 57.7862 23.8313 57.7595 23.723 57.7354C23.0646 57.5896 22.3791 57.6216 21.7372 57.8284C21.0952 58.0351 20.5199 58.409 20.0703 58.9117C19.6207 59.4144 19.3131 60.0277 19.179 60.6887C19.0449 61.3497 19.0893 62.0344 19.3074 62.6725C17.8191 61.1467 18.0972 58.6702 18.6107 56.6015C19.1242 54.5314 19.7474 52.2287 18.7003 50.3712C18.1186 49.3349 17.097 48.693 15.9483 48.4349C15.9135 48.4282 15.8774 48.4202 15.8426 48.4135C14.4747 48.1367 13.0526 48.386 11.8603 49.1115C9.66591 50.4943 8.53861 53.1166 8.17221 55.6854C8.11471 56.0906 8.07459 56.5012 8.05453 56.913C8.04651 57.0574 8.04116 57.2005 8.03848 57.345C8.74321 58.1968 9.49118 59.0183 10.2824 59.8095C11.4245 60.9521 12.6429 62.0158 13.929 62.9935C14.1056 63.1272 14.2821 63.2583 14.4613 63.388C17.3776 65.5186 20.6091 67.1804 24.0386 68.313C24.2272 68.3745 24.4184 68.4361 24.6083 68.4949L24.8837 68.5805Z" fill="white"/>
<path d="M24.6083 68.4951C24.4184 68.4362 24.2271 68.3747 24.0386 68.3132C23.9289 68.1808 23.8246 68.0457 23.7243 67.9067C22.9567 66.8562 22.4328 65.6479 22.1905 64.3697C21.8595 62.5647 22.1178 60.701 22.9273 59.0541C23.154 58.5925 23.4202 58.1513 23.723 57.7356C23.8313 57.7597 23.9383 57.7864 24.0426 57.8172C22.9133 59.3003 22.3188 61.1218 22.3557 62.9856C22.3926 64.8494 23.0587 66.6459 24.2459 68.0832C24.3623 68.2249 24.4826 68.3613 24.6083 68.4951Z" fill="white"/>
<path d="M14.0668 53.9645C13.6222 55.7713 13.4269 57.6303 13.4864 59.49C13.5244 60.6403 13.7671 61.7747 14.2032 62.8398C14.2821 63.0257 14.3677 63.2076 14.4613 63.3881C14.2821 63.2584 14.1056 63.1273 13.929 62.9936C13.9157 62.9628 13.9023 62.9334 13.8903 62.9027C13.8315 62.7609 13.7766 62.6178 13.7258 62.4734C13.4757 61.7537 13.3123 61.0067 13.239 60.2482C13.0451 58.3761 13.243 56.4558 13.6134 54.6171C13.9944 52.7124 14.6112 50.8626 15.4495 49.1103C15.5498 48.899 15.6554 48.6918 15.7624 48.4845C15.7693 48.4672 15.7801 48.4518 15.794 48.4395C15.808 48.4272 15.8246 48.4183 15.8426 48.4136C15.8793 48.4074 15.9169 48.415 15.9482 48.435C15.9855 48.4562 16.0132 48.491 16.0257 48.532C16.0381 48.5731 16.0343 48.6173 16.0151 48.6557C15.1507 50.3388 14.4963 52.1218 14.0668 53.9645Z" fill="white"/>
<path d="M23.7586 53.4729C23.6009 53.5311 23.4304 53.5459 23.265 53.5156C23.0996 53.4853 22.9454 53.411 22.8186 53.3006L21.3312 52.0033C21.1443 51.84 21.0298 51.6092 21.0129 51.3616C20.996 51.114 21.078 50.8698 21.2409 50.6826L32.0531 38.2852C32.2165 38.0983 32.4472 37.9838 32.6948 37.9669C32.9424 37.95 33.1866 38.032 33.3738 38.1949L34.8613 39.4922C35.0482 39.6555 35.1626 39.8863 35.1795 40.1339C35.1964 40.3815 35.1144 40.6257 34.9515 40.8129L24.1394 53.2104C24.0365 53.3285 23.9056 53.4188 23.7586 53.4729Z" fill="#FFB9B9"/>
<path d="M38.6189 39.8308C38.5216 39.8307 38.4249 39.8155 38.3322 39.7858C38.215 39.7487 38.1062 39.6888 38.0123 39.6094C37.9184 39.5301 37.8412 39.4329 37.7851 39.3235L36.8806 37.5693C36.7671 37.3486 36.7458 37.0919 36.8214 36.8555C36.8969 36.6191 37.0632 36.4223 37.2837 36.3084L51.9047 28.7701C52.1254 28.6566 52.3821 28.6353 52.6185 28.7109C52.8549 28.7864 53.0517 28.9527 53.1656 29.1732L54.0701 30.9274C54.1836 31.1481 54.2049 31.4048 54.1293 31.6412C54.0538 31.8776 53.8875 32.0743 53.6671 32.1883L39.046 39.7265C38.914 39.7949 38.7675 39.8307 38.6189 39.8308Z" fill="#FFB9B9"/>
<path d="M38.3553 40.2552C38.1813 40.2552 38.0108 40.2069 37.8627 40.1156C37.7147 40.0243 37.5949 39.8937 37.5167 39.7383L36.6313 37.9744C36.5312 37.7755 36.5055 37.5474 36.5587 37.3312C36.5646 37.3073 36.5714 37.2835 36.5793 37.2597C36.5972 37.2059 36.6166 37.1218 36.6391 37.0246C36.7109 36.7143 36.8002 36.3281 36.9822 36.2368L43.4067 32.3428C43.6277 32.2301 43.8845 32.2098 44.1205 32.2865C44.3565 32.3631 44.5524 32.5304 44.6651 32.7514L44.6678 32.7568L46.2884 36.0971C46.3992 36.319 46.4176 36.5758 46.3394 36.8112C46.2613 37.0466 46.093 37.2414 45.8714 37.3528L38.7678 40.1573C38.6399 40.2218 38.4986 40.2553 38.3553 40.2552Z" fill="#2F2E41"/>
<path d="M35.6884 31.5979C39.641 31.5979 42.8452 28.3937 42.8452 24.4411C42.8452 20.4885 39.641 17.2843 35.6884 17.2843C31.7358 17.2843 28.5316 20.4885 28.5316 24.4411C28.5316 28.3937 31.7358 31.5979 35.6884 31.5979Z" fill="#FFB9B9"/>
<path d="M34.2933 69.8869H32.3196C32.0714 69.8866 31.8335 69.7879 31.658 69.6124C31.4825 69.4369 31.3838 69.199 31.3835 68.9508V52.2334C31.3838 51.9853 31.4825 51.7473 31.658 51.5718C31.8335 51.3964 32.0714 51.2976 32.3196 51.2974H34.2933C34.5414 51.2976 34.7794 51.3964 34.9549 51.5718C35.1303 51.7473 35.2291 51.9853 35.2293 52.2334V68.9508C35.2291 69.199 35.1303 69.4369 34.9549 69.6124C34.7794 69.7879 34.5414 69.8866 34.2933 69.8869Z" fill="#FFB9B9"/>
<path d="M42.7972 62.1061C42.6481 62.1064 42.5011 62.0711 42.3684 62.003C42.2357 61.935 42.1212 61.8362 42.0345 61.7149L32.4667 48.3336C32.3226 48.1315 32.2645 47.8806 32.3052 47.6357C32.3458 47.3909 32.482 47.1722 32.6837 47.0277L34.2893 45.8797C34.4913 45.7356 34.7423 45.6774 34.9871 45.7181C35.2319 45.7588 35.4506 45.8949 35.5952 46.0967L45.1629 59.4779C45.3071 59.68 45.3651 59.931 45.3245 60.1758C45.2838 60.4206 45.1476 60.6393 44.9459 60.7839L43.3404 61.9319C43.182 62.0454 42.992 62.1063 42.7972 62.1061Z" fill="#FFB9B9"/>
<path d="M40.2589 69.6383C40.0621 69.635 39.8688 69.5866 39.6936 69.4969L37.9267 68.6172C37.4647 68.3871 37.2101 67.9563 37.3592 67.6569L41.9129 58.5102C42.062 58.2108 42.5591 58.1542 43.0213 58.3842L44.7881 59.2638C44.9941 59.3615 45.1692 59.5138 45.2946 59.7041C45.3491 59.7781 45.3833 59.8649 45.394 59.9561C45.4047 60.0473 45.3915 60.1397 45.3557 60.2242L40.802 69.3709C40.7147 69.5463 40.508 69.6383 40.2589 69.6383Z" fill="#FFB9B9"/>
<path d="M31.6692 45.3699C31.5025 45.4309 31.3219 45.4433 31.1484 45.4058C30.9749 45.3682 30.8156 45.2823 30.6889 45.1578L28.0113 42.5886C27.9237 42.5024 27.8539 42.3998 27.8059 42.2866C27.7579 42.1735 27.7328 42.052 27.7318 41.929C27.7308 41.8061 27.754 41.6842 27.8001 41.5703C27.8462 41.4564 27.9143 41.3526 28.0005 41.265L28.0012 41.2642L33.6923 36.344C33.8313 36.2024 34.2262 36.2366 34.5435 36.2638C34.643 36.2724 34.729 36.2798 34.7858 36.2793C34.8107 36.2792 34.8355 36.28 34.8601 36.2818C35.0822 36.2977 35.2913 36.3925 35.4497 36.5489L36.8551 37.9345C37.0317 38.109 37.1318 38.3463 37.1336 38.5945C37.1353 38.8427 37.0386 39.0814 36.8646 39.2583L32.0166 45.1441C31.919 45.2442 31.8003 45.3213 31.6692 45.3699Z" fill="#2F2E41"/>
<path d="M34.7357 27.0937L34.7282 26.8262C35.2258 26.8124 35.6644 26.7812 35.9941 26.5404C36.0875 26.4682 36.1643 26.3768 36.2193 26.2723C36.2742 26.1678 36.306 26.0527 36.3125 25.9348C36.3183 25.8628 36.3074 25.7904 36.2806 25.7233C36.2539 25.6561 36.2121 25.5961 36.1583 25.5477C35.9395 25.363 35.5875 25.4228 35.3308 25.5404L35.1096 25.6419L35.5339 22.5408L35.7989 22.5771L35.4379 25.215C35.7866 25.1125 36.1097 25.1566 36.331 25.3435C36.4159 25.4177 36.4826 25.5105 36.5258 25.6147C36.5689 25.7189 36.5874 25.8317 36.5797 25.9442C36.5719 26.1026 36.5296 26.2574 36.4557 26.3976C36.3817 26.5379 36.278 26.6604 36.1518 26.7564C35.7283 27.0659 35.1779 27.0813 34.7357 27.0937Z" fill="#2F2E41"/>
<path d="M38.5497 22.8046H37.1093V23.072H38.5497V22.8046Z" fill="#2F2E41"/>
<path d="M34.0031 22.8046H32.5627V23.072H34.0031V22.8046Z" fill="#2F2E41"/>
<path d="M46.8913 54.2436H24.6287C24.4759 54.2442 24.3257 54.2044 24.1932 54.1282C24.0607 54.0521 23.9507 53.9423 23.8743 53.8099C23.7979 53.6776 23.7578 53.5274 23.7581 53.3746C23.7584 53.2218 23.7991 53.0718 23.876 52.9398L35.0072 33.6598C35.0828 33.5271 35.1924 33.4169 35.3247 33.3405C35.457 33.2641 35.6073 33.2243 35.76 33.2252C35.9128 33.2243 36.063 33.2641 36.1953 33.3405C36.3276 33.4169 36.4372 33.5271 36.5128 33.6598L47.6441 52.9398C47.7204 53.0719 47.7605 53.2218 47.7605 53.3744C47.7605 53.527 47.7204 53.6769 47.6441 53.809C47.5678 53.9411 47.458 54.0509 47.3259 54.1271C47.1938 54.2034 47.0439 54.2436 46.8913 54.2436Z" fill="#2F2E41"/>
<path d="M36.2292 17.1962C35.4356 14.015 32.3593 11.5724 29.063 11.6332C27.4312 11.679 25.8575 12.2496 24.5755 13.2604C23.9293 13.7633 23.3729 14.3721 22.9299 15.0609C22.4331 15.8362 22.1211 16.7115 21.8776 17.5948C21.3855 19.3798 21.1536 21.3995 19.9048 22.8572C19.387 23.4472 18.7485 23.9193 18.0326 24.2414C17.3167 24.5634 16.5399 24.7281 15.7549 24.7241C14.964 24.7118 14.1866 24.5165 13.4838 24.1536C12.7809 23.7907 12.1716 23.27 11.7037 22.6322C10.7637 21.379 10.3009 19.6458 10.8439 18.1333C11.1104 17.3911 11.6834 16.69 12.503 16.5663C12.8767 16.5157 13.2571 16.5755 13.5973 16.7383C13.9375 16.9011 14.2227 17.1599 14.4177 17.4827C14.7862 18.1294 14.6684 18.9923 14.2066 19.5628C13.7203 20.1636 12.9075 20.3299 12.1907 20.0885C11.8538 19.974 11.5575 19.7638 11.3381 19.4837C11.1778 19.2812 10.8937 19.565 11.0524 19.7654C11.3066 20.0703 11.6349 20.3048 12.0058 20.4465C12.3766 20.5882 12.7776 20.6323 13.1704 20.5746C13.5624 20.5153 13.9306 20.3495 14.2348 20.0953C14.539 19.8411 14.7675 19.5083 14.8955 19.1331C15.0359 18.7611 15.0727 18.358 15.002 17.9668C14.9314 17.5755 14.756 17.2107 14.4945 16.9113C14.222 16.6149 13.878 16.3935 13.4954 16.2682C13.1129 16.1429 12.7045 16.1178 12.3095 16.1954C11.4633 16.3746 10.8488 17.0706 10.5298 17.8418C10.2156 18.643 10.1326 19.5164 10.2905 20.3624C10.4362 21.1788 10.7522 21.9554 11.218 22.6415C11.6837 23.3277 12.2888 23.9081 12.9937 24.3449C14.4204 25.2209 16.2011 25.3414 17.7662 24.7787C18.5482 24.5021 19.2624 24.0623 19.8614 23.4885C20.5052 22.8354 20.9978 22.0491 21.3047 21.185C22.0104 19.3375 22.1138 17.2701 23.1122 15.5334C23.983 14.0588 25.3567 12.9479 26.9809 12.4048C28.5956 11.8469 30.363 11.9318 31.9169 12.6417C33.4619 13.3573 34.7064 14.5929 35.4329 16.1328C35.606 16.508 35.7428 16.8989 35.8417 17.3001C35.9043 17.551 36.2917 17.4469 36.2292 17.1962L36.2292 17.1962Z" fill="#2F2E41"/>
<path d="M37.3295 35.1027H34.3875C34.1571 35.1024 33.9361 35.0107 33.7732 34.8478C33.6102 34.6848 33.5186 34.4639 33.5183 34.2335V33.966C33.5186 33.7356 33.6102 33.5146 33.7732 33.3517C33.9361 33.1887 34.1571 33.0971 34.3875 33.0968H37.3295C37.5599 33.0971 37.7808 33.1887 37.9438 33.3517C38.1067 33.5146 38.1984 33.7356 38.1987 33.966V34.2335C38.1984 34.4639 38.1067 34.6848 37.9438 34.8478C37.7808 35.0107 37.5599 35.1024 37.3295 35.1027Z" fill="#2F2E41"/>
<path d="M21.8175 55.8968C22.2606 55.8968 22.6198 55.5376 22.6198 55.0945C22.6198 54.6513 22.2606 54.2921 21.8175 54.2921C21.3743 54.2921 21.0151 54.6513 21.0151 55.0945C21.0151 55.5376 21.3743 55.8968 21.8175 55.8968Z" fill="#E6E6E6"/>
<path d="M60.5975 43.0593C61.0406 43.0593 61.3999 42.7001 61.3999 42.2569C61.3999 41.8138 61.0406 41.4546 60.5975 41.4546C60.1544 41.4546 59.7952 41.8138 59.7952 42.2569C59.7952 42.7001 60.1544 43.0593 60.5975 43.0593Z" fill="white"/>
<path d="M10.3171 46.5361C10.7603 46.5361 11.1195 46.1769 11.1195 45.7337C11.1195 45.2906 10.7603 44.9314 10.3171 44.9314C9.87401 44.9314 9.51479 45.2906 9.51479 45.7337C9.51479 46.1769 9.87401 46.5361 10.3171 46.5361Z" fill="white"/>
<path d="M70.0919 35.0358C70.1164 42.5959 67.6731 49.9574 63.1329 56.0024C60.7443 59.1856 57.8388 61.9456 54.5372 64.1676C54.156 64.4257 53.77 64.6745 53.3791 64.9138C50.453 66.7176 47.2741 68.0746 43.9475 68.9403C43.7723 68.9857 43.5971 69.0299 43.422 69.0727C43.2963 69.1034 43.1692 69.1342 43.0422 69.1609C42.8363 69.2104 42.6303 69.2559 42.423 69.3H42.4217C40.0004 69.8149 37.5316 70.0735 35.0561 70.0716C34.7352 70.0716 34.4147 70.0671 34.0947 70.0582C33.4033 70.0408 32.7155 70.0025 32.0313 69.9432C29.6079 69.7387 27.2124 69.282 24.8838 68.5806C24.7915 68.5525 24.7005 68.5244 24.6083 68.495C24.4184 68.4361 24.2271 68.3746 24.0386 68.3131C20.609 67.1804 17.3776 65.5187 14.4613 63.388C14.2821 63.2583 14.1056 63.1273 13.929 62.9935C12.6429 62.0159 11.4245 60.9521 10.2824 59.8096C9.49069 59.0179 8.74272 58.1964 8.03847 57.345C5.41032 54.182 3.36549 50.5768 1.99945 46.6979C-4.43064 28.4365 5.16056 8.41999 23.422 1.9899C27.1597 0.673804 31.0935 0.000969842 35.0561 0C40.3449 0 45.8223 1.34527 50.8958 3.89272L50.7754 4.13075C45.7394 1.60336 40.3035 0.267449 35.0561 0.267449C15.8854 0.267449 0.287807 15.8651 0.287807 35.0358C0.280112 43.005 3.02352 50.7327 8.05453 56.9131C9.72797 58.9756 11.6306 60.841 13.7258 62.4734C13.8836 62.5964 14.0427 62.7185 14.2032 62.8398C17.0933 65.0147 20.3059 66.7243 23.7243 67.9066C23.8968 67.9668 24.0707 68.0256 24.2459 68.0831C24.5039 68.1673 24.7647 68.2503 25.0268 68.3278C27.3655 69.0345 29.7727 69.4904 32.2078 69.6878C32.8925 69.744 33.582 69.7796 34.2765 69.7948C34.5359 69.8015 34.7954 69.8041 35.0561 69.8041C37.4834 69.8058 39.9042 69.5526 42.2786 69.0486C42.3107 69.0419 42.3441 69.0352 42.3763 69.0272C42.5982 68.9804 42.8188 68.9305 43.0382 68.8774C43.2949 68.8186 43.549 68.7544 43.8031 68.6889C47.4594 67.7372 50.9351 66.1927 54.0918 64.1168C54.4074 63.9109 54.719 63.6987 55.0265 63.4803C61.7652 58.7547 66.6083 51.791 68.6937 43.8291C70.7791 35.8671 69.9715 27.4234 66.4145 20.0012L66.6566 19.8862C68.931 24.6118 70.1055 29.7913 70.0919 35.0358Z" fill="#E6E6E6"/>
<path d="M69.4046 20.2219C66.0334 20.2219 62.9601 19.4034 60.2703 17.7893C57.4255 16.0829 51.5586 17.0706 51.1186 17.9413L50.5792 19.2405L52.0996 4.19797L52.1568 4.14469C52.2819 4.02494 55.3289 1.24037 63.3122 5.15664C69.3715 8.12828 74.3246 6.72776 76.173 5.98771C76.2675 5.94956 76.3702 5.93606 76.4714 5.94846C76.5726 5.96087 76.669 5.99877 76.7515 6.05862C76.834 6.11847 76.9 6.1983 76.9432 6.29063C76.9865 6.38296 77.0055 6.48475 76.9986 6.58647L76.1629 18.7074C76.1552 18.8275 76.1115 18.9424 76.0374 19.0372C75.9632 19.132 75.8622 19.2022 75.7475 19.2385C73.6946 19.8828 71.5563 20.2143 69.4046 20.2219Z" fill="#6C63FF"/>
<path d="M51.495 3.70459C51.25 3.70487 51.0151 3.80232 50.8419 3.97555C50.6686 4.14878 50.5712 4.38366 50.5709 4.62865V35.7587C50.5709 36.0038 50.6683 36.2389 50.8416 36.4122C51.0149 36.5854 51.2499 36.6828 51.495 36.6828C51.7401 36.6828 51.9751 36.5854 52.1484 36.4122C52.3217 36.2389 52.419 36.0038 52.419 35.7587V4.62865C52.4188 4.38366 52.3213 4.14878 52.1481 3.97555C51.9748 3.80232 51.74 3.70487 51.495 3.70459Z" fill="#3F3D56"/>
</g>
<defs>
<clipPath id="clip0">
<rect width="77" height="70.0716" fill="white"/>
</clipPath>
</defs>
</svg>
