<svg width="44" height="44" viewBox="0 0 44 44" fill="none" xmlns="http://www.w3.org/2000/svg">
<path d="M22 3.66666C18.374 3.66666 14.8295 4.74189 11.8146 6.75638C8.79967 8.77087 6.44984 11.6341 5.06224 14.9841C3.67463 18.3341 3.31157 22.0203 4.01897 25.5766C4.72636 29.133 6.47244 32.3997 9.0364 34.9636C11.6004 37.5276 14.8671 39.2737 18.4234 39.9811C21.9797 40.6884 25.6659 40.3254 29.0159 38.9378C32.3659 37.5502 35.2291 35.2003 37.2436 32.1854C39.2581 29.1705 40.3334 25.626 40.3334 22C40.3334 19.5924 39.8592 17.2084 38.9378 14.9841C38.0165 12.7598 36.6661 10.7388 34.9637 9.03637C33.2612 7.33396 31.2402 5.98353 29.0159 5.0622C26.7916 4.14086 24.4076 3.66666 22 3.66666ZM22 36.6667C19.0992 36.6667 16.2636 35.8065 13.8517 34.1949C11.4397 32.5833 9.55988 30.2927 8.4498 27.6127C7.33971 24.9327 7.04926 21.9837 7.61518 19.1387C8.1811 16.2936 9.57796 13.6803 11.6291 11.6291C13.6803 9.57792 16.2937 8.18106 19.1387 7.61514C21.9838 7.04922 24.9327 7.33967 27.6127 8.44976C30.2927 9.55984 32.5833 11.4397 34.1949 13.8516C35.8065 16.2635 36.6667 19.0992 36.6667 22C36.6667 25.8898 35.1215 29.6204 32.3709 32.3709C29.6204 35.1214 25.8899 36.6667 22 36.6667Z" fill="#30343F"/>
<path d="M22 11C20.2982 11 18.6661 11.6761 17.4627 12.8794C16.2594 14.0828 15.5833 15.7149 15.5833 17.4167C15.5833 17.9029 15.7765 18.3692 16.1203 18.7131C16.4641 19.0569 16.9304 19.25 17.4166 19.25C17.9029 19.25 18.3692 19.0569 18.713 18.7131C19.0568 18.3692 19.25 17.9029 19.25 17.4167C19.25 16.8728 19.4113 16.3411 19.7134 15.8889C20.0156 15.4366 20.4451 15.0842 20.9476 14.876C21.4501 14.6679 22.003 14.6134 22.5365 14.7195C23.0699 14.8256 23.5599 15.0876 23.9445 15.4722C24.3291 15.8567 24.591 16.3468 24.6971 16.8802C24.8032 17.4136 24.7488 17.9666 24.5406 18.4691C24.3325 18.9716 23.98 19.4011 23.5278 19.7032C23.0756 20.0054 22.5439 20.1667 22 20.1667C21.5137 20.1667 21.0474 20.3599 20.7036 20.7037C20.3598 21.0475 20.1666 21.5138 20.1666 22V25.6667C20.1666 26.1529 20.3598 26.6192 20.7036 26.9631C21.0474 27.3069 21.5137 27.5 22 27.5C22.4862 27.5 22.9525 27.3069 23.2963 26.9631C23.6402 26.6192 23.8333 26.1529 23.8333 25.6667V23.54C25.3148 23.1074 26.59 22.1538 27.4239 20.855C28.2577 19.5562 28.594 17.9998 28.3707 16.4727C28.1475 14.9455 27.3797 13.5505 26.2089 12.5448C25.0382 11.5391 23.5434 10.9905 22 11Z" fill="#30343F"/>
<path d="M22 33C23.0125 33 23.8334 32.1792 23.8334 31.1667C23.8334 30.1542 23.0125 29.3333 22 29.3333C20.9875 29.3333 20.1667 30.1542 20.1667 31.1667C20.1667 32.1792 20.9875 33 22 33Z" fill="#30343F"/>
</svg>
