<svg width="97" height="54" viewBox="0 0 97 54" fill="none" xmlns="http://www.w3.org/2000/svg">
<g clip-path="url(#clip0)">
<path d="M27.8282 11.1443C27.3605 10.5267 26.6996 9.95519 26.6577 9.19306C26.6193 8.49404 27.1307 7.80003 26.9151 7.13128C26.7492 6.61709 26.2021 6.30683 25.6675 6.14253C24.6439 5.83249 23.5485 5.87547 22.5514 6.26479L22.6055 6.2259C21.9969 6.00495 21.2855 6.23304 20.8067 6.6555C20.3278 7.07795 20.0433 7.66352 19.8225 8.25033C19.6016 8.83714 19.4305 9.44541 19.1237 9.99555C18.8169 10.5457 18.3471 11.046 17.7273 11.2361C17.9348 11.6579 18.5834 11.8027 18.9639 11.512C19.061 11.4316 19.1484 11.3395 19.2241 11.2378C19.4778 10.9234 19.7315 10.609 19.9853 10.2945C20.2464 10.7678 19.8563 11.4209 20.1772 11.859C20.3427 12.0849 20.6449 12.1707 20.9256 12.2323C23.1195 12.7094 25.3953 12.6233 27.5485 11.9819C27.7215 11.93 27.9125 11.8584 27.9842 11.6988C28.0671 11.5145 27.9512 11.3067 27.8282 11.1443Z" fill="#2F2E41"/>
<path d="M34.0488 13.5545C34.0351 13.6159 34.0262 13.6783 34.0221 13.7411L29.227 16.5604L28.0615 15.8766L26.8189 17.5344L28.7668 18.9493C28.9242 19.0636 29.1137 19.1228 29.3069 19.118C29.5001 19.1132 29.6865 19.0447 29.8382 18.9227L34.7828 14.9472C35.006 15.0313 35.249 15.0443 35.4795 14.9843C35.7101 14.9243 35.9172 14.7942 36.0735 14.6112C36.2297 14.4283 36.3275 14.2013 36.354 13.9603C36.3805 13.7193 36.3344 13.4758 36.2218 13.2621C36.1092 13.0485 35.9355 12.8749 35.7237 12.7643C35.5119 12.6538 35.2721 12.6116 35.0362 12.6433C34.8003 12.6751 34.5795 12.7793 34.4031 12.942C34.2267 13.1048 34.1032 13.3185 34.0488 13.5545Z" fill="#FFB7B7"/>
<path d="M29.0667 16.6939L27.5169 18.741C27.4728 18.7993 27.4169 18.8471 27.353 18.8814C27.2891 18.9156 27.2187 18.9354 27.1467 18.9394C27.0746 18.9435 27.0025 18.9316 26.9353 18.9047C26.8682 18.8778 26.8075 18.8364 26.7574 18.7834L25.003 16.9266C24.7114 16.6952 24.5219 16.3553 24.4761 15.9815C24.4302 15.6078 24.5317 15.2308 24.7584 14.9333C24.985 14.6358 25.3181 14.4421 25.6848 14.3947C26.0514 14.3473 26.4215 14.4501 26.7138 14.6805L28.9143 15.9345C28.9773 15.9704 29.0319 16.0197 29.0745 16.0791C29.1171 16.1385 29.1466 16.2066 29.1611 16.2786C29.1756 16.3507 29.1746 16.4251 29.1583 16.4968C29.142 16.5685 29.1108 16.6357 29.0667 16.6939H29.0667Z" fill="#6C63FF"/>
<path d="M26.9338 52.3614L28.3023 52.3613L28.9533 46.9817L26.9336 46.9818L26.9338 52.3614Z" fill="#FFB7B7"/>
<path d="M26.5847 51.9061L29.2798 51.9059H29.2799C29.7354 51.906 30.1722 52.0904 30.4943 52.4186C30.8164 52.7469 30.9974 53.1921 30.9974 53.6563V53.7132L26.5848 53.7134L26.5847 51.9061Z" fill="#2F2E41"/>
<path d="M17.5573 52.3614L18.9258 52.3613L19.5768 46.9817L17.5571 46.9818L17.5573 52.3614Z" fill="#FFB7B7"/>
<path d="M17.2082 51.9061L19.9033 51.9059H19.9034C20.3589 51.906 20.7957 52.0904 21.1178 52.4186C21.4399 52.7469 21.6209 53.1921 21.6209 53.6563V53.7132L17.2083 53.7134L17.2082 51.9061Z" fill="#2F2E41"/>
<path d="M26.1119 10.3837C26.2544 9.06047 25.3174 7.86999 24.019 7.72473C22.7206 7.57947 21.5525 8.53444 21.41 9.85772C21.2674 11.181 22.2045 12.3715 23.5029 12.5167C24.8013 12.662 25.9694 11.707 26.1119 10.3837Z" fill="#FFB7B7"/>
<path d="M25.1448 13.7343L26.5381 14.4377C26.5381 14.4377 28.0949 17.195 27.2019 19.8116C26.7684 21.0819 27.9893 25.1315 27.9893 25.1315C27.9893 25.1315 29.8809 43.4743 29.8869 49.1355C27.5368 49.5038 25.3043 49.9588 25.1927 48.8212C25.081 47.6835 23.8591 34.2325 23.8591 34.2325C23.8591 34.2325 22.1788 49.1625 20.8393 49.39C19.4998 49.6175 16.8208 49.2762 16.8208 49.2762C16.8208 49.2762 18.9476 27.4067 20.3988 26.0416L20.622 24.9039L20.616 14.6922L22.2879 13.8791L25.1448 13.7343Z" fill="#2F2E41"/>
<path d="M20.1604 29.2368C20.3146 29.1518 20.4486 29.0333 20.553 28.8898C20.6574 28.7463 20.7297 28.5812 20.7647 28.4061C20.7998 28.231 20.7967 28.0503 20.7558 27.8766C20.7148 27.7028 20.637 27.5404 20.5278 27.4006L22.1482 16.3926L20.0312 16.2891L18.768 27.2515C18.5498 27.454 18.4121 27.7311 18.3809 28.0302C18.3497 28.3293 18.4273 28.6297 18.599 28.8744C18.7706 29.1192 19.0244 29.2912 19.3121 29.358C19.5999 29.4248 19.9018 29.3817 20.1604 29.2368Z" fill="#FFB7B7"/>
<path d="M22.1022 19.1508L19.5703 18.9879C19.4983 18.9833 19.428 18.9629 19.3644 18.9281C19.3008 18.8933 19.2453 18.845 19.2017 18.7863C19.1581 18.7277 19.1274 18.6602 19.1117 18.5884C19.096 18.5166 19.0956 18.4422 19.1107 18.3703L19.6382 15.8492C19.6635 15.4737 19.8339 15.1237 20.1121 14.876C20.3902 14.6283 20.7534 14.5031 21.122 14.5279C21.4905 14.5528 21.8344 14.7255 22.0782 15.0084C22.3219 15.2912 22.4456 15.661 22.4222 16.0367L22.6344 18.597C22.6405 18.6703 22.631 18.7441 22.6065 18.8133C22.5821 18.8825 22.5433 18.9455 22.4928 18.9981C22.4423 19.0507 22.3812 19.0915 22.3138 19.1179C22.2464 19.1442 22.1743 19.1555 22.1022 19.1508L22.1022 19.1508Z" fill="#6C63FF"/>
<path d="M92.078 8.7124H36.0875C35.6788 8.7124 35.2868 8.87788 34.9978 9.17243C34.7088 9.46697 34.5464 9.86646 34.5464 10.283V42.0774C34.5464 42.494 34.7088 42.8934 34.9978 43.188C35.2868 43.4825 35.6788 43.648 36.0875 43.648H92.078C92.4867 43.648 92.8787 43.4825 93.1677 43.188C93.4567 42.8934 93.6191 42.494 93.6191 42.0774V10.283C93.6191 9.86646 93.4567 9.46697 93.1677 9.17243C92.8787 8.87788 92.4867 8.7124 92.078 8.7124Z" fill="#3F3D56"/>
<path d="M91.5529 11.4882H36.6126V43.0738H91.5529V11.4882Z" fill="white"/>
<path d="M64.0358 10.6267C64.347 10.6267 64.5993 10.3696 64.5993 10.0524C64.5993 9.73526 64.347 9.47815 64.0358 9.47815C63.7246 9.47815 63.4723 9.73526 63.4723 10.0524C63.4723 10.3696 63.7246 10.6267 64.0358 10.6267Z" fill="white"/>
<path d="M75.8409 43.0738H36.6126V11.4882L75.8409 43.0738Z" fill="#F2F2F2"/>
<path d="M95.1617 42.4995H89.7999V42.1058C89.7999 42.0851 89.7918 42.0652 89.7774 42.0506C89.7631 42.0359 89.7436 42.0277 89.7233 42.0277H87.8849C87.8749 42.0277 87.8649 42.0297 87.8556 42.0336C87.8463 42.0376 87.8379 42.0433 87.8307 42.0506C87.8236 42.0578 87.818 42.0664 87.8141 42.0759C87.8103 42.0854 87.8083 42.0955 87.8083 42.1058V42.4995H86.6594V42.1058C86.6594 42.0955 86.6574 42.0854 86.6535 42.0759C86.6497 42.0664 86.644 42.0578 86.6369 42.0506C86.6298 42.0433 86.6214 42.0376 86.6121 42.0336C86.6028 42.0297 86.5928 42.0277 86.5828 42.0277H84.7444C84.7344 42.0277 84.7244 42.0297 84.7151 42.0336C84.7058 42.0376 84.6974 42.0433 84.6903 42.0506C84.6832 42.0578 84.6775 42.0664 84.6737 42.0759C84.6698 42.0854 84.6678 42.0955 84.6678 42.1058V42.4995H83.5189V42.1058C83.5189 42.0955 83.5169 42.0854 83.513 42.0759C83.5092 42.0664 83.5036 42.0578 83.4964 42.0506C83.4893 42.0433 83.4809 42.0376 83.4716 42.0336C83.4623 42.0297 83.4523 42.0277 83.4423 42.0277H81.6039C81.5939 42.0277 81.5839 42.0297 81.5746 42.0336C81.5653 42.0376 81.5569 42.0433 81.5498 42.0506C81.5427 42.0578 81.537 42.0664 81.5332 42.0759C81.5293 42.0854 81.5273 42.0955 81.5273 42.1058V42.4995H80.3784V42.1058C80.3784 42.0955 80.3764 42.0854 80.3725 42.0759C80.3687 42.0664 80.3631 42.0578 80.3559 42.0506C80.3488 42.0433 80.3404 42.0376 80.3311 42.0336C80.3218 42.0297 80.3118 42.0277 80.3018 42.0277H78.4634C78.4534 42.0277 78.4434 42.0297 78.4341 42.0336C78.4248 42.0376 78.4164 42.0433 78.4093 42.0506C78.4022 42.0578 78.3965 42.0664 78.3927 42.0759C78.3888 42.0854 78.3868 42.0955 78.3868 42.1058V42.4995H77.2379V42.1058C77.2379 42.0955 77.2359 42.0854 77.2321 42.0759C77.2282 42.0664 77.2226 42.0578 77.2155 42.0506C77.2083 42.0433 77.1999 42.0376 77.1906 42.0336C77.1813 42.0297 77.1713 42.0277 77.1613 42.0277H75.3229C75.3129 42.0277 75.3029 42.0297 75.2936 42.0336C75.2843 42.0376 75.2759 42.0433 75.2688 42.0506C75.2617 42.0578 75.256 42.0664 75.2522 42.0759C75.2483 42.0854 75.2463 42.0955 75.2463 42.1058V42.4995H74.0974V42.1058C74.0974 42.0955 74.0954 42.0854 74.0916 42.0759C74.0877 42.0664 74.0821 42.0578 74.075 42.0506C74.0678 42.0433 74.0594 42.0376 74.0501 42.0336C74.0408 42.0297 74.0308 42.0277 74.0208 42.0277H72.1824C72.1724 42.0277 72.1624 42.0297 72.1531 42.0336C72.1438 42.0376 72.1354 42.0433 72.1283 42.0506C72.1212 42.0578 72.1155 42.0664 72.1117 42.0759C72.1078 42.0854 72.1059 42.0955 72.1059 42.1058V42.4995H70.9569V42.1058C70.9569 42.0955 70.9549 42.0854 70.9511 42.0759C70.9472 42.0664 70.9416 42.0578 70.9345 42.0506C70.9273 42.0433 70.9189 42.0376 70.9096 42.0336C70.9003 42.0297 70.8904 42.0277 70.8803 42.0277H56.48C56.4699 42.0277 56.46 42.0297 56.4507 42.0336C56.4414 42.0376 56.4329 42.0433 56.4258 42.0506C56.4187 42.0578 56.4131 42.0664 56.4092 42.0759C56.4054 42.0854 56.4034 42.0955 56.4034 42.1058V42.4995H55.2544V42.1058C55.2544 42.0955 55.2524 42.0854 55.2486 42.0759C55.2447 42.0664 55.2391 42.0578 55.232 42.0506C55.2249 42.0433 55.2164 42.0376 55.2071 42.0336C55.1978 42.0297 55.1879 42.0277 55.1778 42.0277H53.3395C53.3294 42.0277 53.3195 42.0297 53.3102 42.0336C53.3009 42.0376 53.2924 42.0433 53.2853 42.0506C53.2782 42.0578 53.2726 42.0664 53.2687 42.0759C53.2649 42.0854 53.2629 42.0955 53.2629 42.1058V42.4995H52.1139V42.1058C52.1139 42.0955 52.1119 42.0854 52.1081 42.0759C52.1042 42.0664 52.0986 42.0578 52.0915 42.0506C52.0844 42.0433 52.0759 42.0376 52.0666 42.0337C52.0573 42.0297 52.0474 42.0277 52.0373 42.0277H50.199C50.1889 42.0277 50.179 42.0297 50.1697 42.0336C50.1604 42.0376 50.1519 42.0433 50.1448 42.0506C50.1377 42.0578 50.1321 42.0664 50.1282 42.0759C50.1244 42.0854 50.1224 42.0955 50.1224 42.1058V42.4995H48.9734V42.1058C48.9734 42.0955 48.9714 42.0854 48.9676 42.0759C48.9637 42.0664 48.9581 42.0578 48.951 42.0506C48.9439 42.0433 48.9354 42.0376 48.9261 42.0336C48.9168 42.0297 48.9069 42.0277 48.8968 42.0277H47.0585C47.0484 42.0277 47.0385 42.0297 47.0292 42.0336C47.0199 42.0376 47.0114 42.0433 47.0043 42.0506C46.9972 42.0578 46.9916 42.0664 46.9877 42.0759C46.9839 42.0854 46.9819 42.0955 46.9819 42.1058V42.4995H45.8329V42.1058C45.8329 42.0955 45.8309 42.0854 45.8271 42.0759C45.8232 42.0664 45.8176 42.0578 45.8105 42.0506C45.8034 42.0433 45.7949 42.0376 45.7856 42.0336C45.7764 42.0297 45.7664 42.0277 45.7563 42.0277H43.918C43.9079 42.0277 43.898 42.0297 43.8887 42.0336C43.8794 42.0376 43.8709 42.0433 43.8638 42.0506C43.8567 42.0578 43.8511 42.0664 43.8472 42.0759C43.8434 42.0854 43.8414 42.0955 43.8414 42.1058V42.4995H42.6924V42.1058C42.6924 42.0955 42.6904 42.0854 42.6866 42.0759C42.6827 42.0664 42.6771 42.0578 42.67 42.0506C42.6629 42.0433 42.6544 42.0376 42.6451 42.0336C42.6358 42.0297 42.6259 42.0277 42.6158 42.0277H40.7775C40.7572 42.0277 40.7377 42.0359 40.7233 42.0506C40.709 42.0652 40.7009 42.0851 40.7009 42.1058V42.4995H39.5519V42.1058C39.5519 42.0955 39.55 42.0854 39.5461 42.0759C39.5423 42.0664 39.5366 42.0578 39.5295 42.0506C39.5224 42.0433 39.5139 42.0376 39.5047 42.0337C39.4954 42.0297 39.4854 42.0277 39.4753 42.0277H37.637C37.6167 42.0277 37.5972 42.0359 37.5828 42.0506C37.5685 42.0652 37.5604 42.0851 37.5604 42.1058V42.4995H34.0369C33.7955 42.4995 33.5564 42.5479 33.3334 42.6421C33.1104 42.7363 32.9077 42.8743 32.737 43.0482C32.5663 43.2222 32.4309 43.4288 32.3385 43.6561C32.2461 43.8834 32.1986 44.127 32.1986 44.373V45.2202C32.1986 45.7171 32.3923 46.1937 32.737 46.545C33.0818 46.8964 33.5494 47.0938 34.0369 47.0938H95.1617C95.6492 47.0938 96.1168 46.8964 96.4616 46.545C96.8063 46.1937 97 45.7171 97 45.2202V44.373C97 44.127 96.9525 43.8834 96.8601 43.6561C96.7677 43.4288 96.6323 43.2222 96.4616 43.0482C96.2909 42.8743 96.0882 42.7363 95.8652 42.6421C95.6422 42.5479 95.4031 42.4995 95.1617 42.4995Z" fill="#3F3D56"/>
<path d="M65.1396 38.9322C65.1212 38.9766 65.1006 39.02 65.0777 39.0622C64.9579 39.2877 64.7885 39.4818 64.5829 39.6296C64.3394 39.8042 64.0535 39.9073 63.7565 39.9277C63.4594 39.9481 63.1625 39.885 62.8983 39.7452C62.634 39.6054 62.4125 39.3943 62.2579 39.135C62.1033 38.8757 62.0215 38.578 62.0215 38.2746V38.0072H62.2442C63.1093 38.5771 64.11 38.8968 65.1396 38.9322Z" fill="#3F3D56"/>
<path d="M68.3168 38.0854V38.2746C68.317 38.6427 68.1967 39.0005 67.9751 39.2912C67.7535 39.582 67.4432 39.7892 67.0931 39.8801C66.7431 39.9711 66.3732 39.9406 66.0421 39.7934C65.711 39.6462 65.4374 39.3908 65.2645 39.0675C65.2407 39.0243 65.2192 38.9797 65.2001 38.9341C65.2476 38.9355 65.2945 38.9361 65.3421 38.9361C66.3916 38.9374 67.4211 38.643 68.3168 38.0854Z" fill="#3F3D56"/>
<path d="M70.507 18.0873C70.4582 18.08 70.4088 18.0753 70.3593 18.072C70.9216 19.3927 70.9605 20.8839 70.468 22.2331C70.5175 22.2272 70.5663 22.2192 70.6151 22.2099C71.092 22.1158 71.5205 21.8522 71.8245 21.4662C72.1286 21.0802 72.2883 20.5967 72.2753 20.1019C72.2624 19.6071 72.0775 19.133 71.7537 18.7641C71.4299 18.3952 70.9881 18.1553 70.507 18.0873Z" fill="#3F3D56"/>
<path d="M60.3248 18.072C60.2753 18.0753 60.2259 18.08 60.177 18.0873C59.696 18.1554 59.2542 18.3952 58.9304 18.7641C58.6066 19.1331 58.4218 19.6071 58.4088 20.1019C58.3958 20.5967 58.5555 21.0802 58.8596 21.4662C59.1636 21.8522 59.5921 22.1158 60.0689 22.2099C60.1178 22.2192 60.1666 22.2272 60.2161 22.2331C59.7236 20.8839 59.7626 19.3927 60.3248 18.072Z" fill="#3F3D56"/>
<path d="M70.507 18.0873C69.9707 16.7815 68.9772 15.7256 67.7197 15.1246C66.4621 14.5236 65.0302 14.4205 63.7022 14.8353C62.3742 15.2501 61.2449 16.1531 60.5337 17.369C59.8225 18.5849 59.5802 20.0268 59.8538 21.4147C60.1273 22.8025 60.8974 24.0371 62.0142 24.8787C63.131 25.7203 64.5149 26.1087 65.897 25.9686C67.2792 25.8284 68.5608 25.1697 69.4931 24.1203C70.4253 23.0709 70.9415 21.7059 70.9413 20.2903C70.9411 19.5339 70.7935 18.7851 70.507 18.0873ZM70.468 22.2332C69.9917 23.5379 69.0535 24.6137 67.838 25.2489C66.6225 25.884 65.2178 26.0324 63.9003 25.665C62.5828 25.2976 61.448 24.4408 60.7192 23.2634C59.9904 22.086 59.7204 20.6732 59.9623 19.3031C60.2043 17.9331 60.9407 16.7049 62.0266 15.8604C63.1125 15.0158 64.4692 14.6161 65.8297 14.7399C67.1902 14.8637 68.456 15.5021 69.378 16.5293C70.2999 17.5565 70.8111 18.8982 70.8111 20.2903C70.8109 20.9535 70.6947 21.6115 70.468 22.2332Z" fill="#3F3D56"/>
<path d="M68.2068 18.9963H62.4773C62.1751 18.9963 61.8853 19.1187 61.6716 19.3365C61.458 19.5542 61.3379 19.8496 61.3379 20.1576C61.3379 20.4655 61.458 20.7609 61.6716 20.9787C61.8853 21.1964 62.1751 21.3188 62.4773 21.3188H68.2068C68.509 21.3188 68.7988 21.1964 69.0125 20.9787C69.2262 20.7609 69.3462 20.4655 69.3462 20.1576C69.3462 19.8496 69.2262 19.5542 69.0125 19.3365C68.7988 19.1187 68.509 18.9963 68.2068 18.9963Z" fill="#3F3D56"/>
<path d="M70.468 30.2065C70.4471 30.1673 70.4257 30.1288 70.4035 30.091C70.4029 30.0897 70.4022 30.089 70.4016 30.0877C69.8893 29.1939 69.1578 28.4513 68.2788 27.9327C67.3999 27.414 66.4037 27.1372 65.3881 27.1294C64.3726 27.1216 63.3724 27.3831 62.4859 27.8882C61.5994 28.3932 60.857 29.1245 60.3315 30.0103C59.8061 30.8961 59.5156 31.9059 59.4887 32.9406C59.4618 33.9753 59.6993 34.9994 60.178 35.9123C60.6566 36.8252 61.36 37.5956 62.219 38.1478C63.078 38.7001 64.0631 39.0152 65.0777 39.0622C65.1395 39.0655 65.202 39.0675 65.2645 39.0675C65.2906 39.0689 65.316 39.0689 65.3421 39.0689C66.3888 39.0704 67.4165 38.7841 68.3168 38.2401C69.2948 37.6502 70.0847 36.785 70.5917 35.7484C70.5923 35.7471 70.593 35.7465 70.5936 35.7451C70.6132 35.7053 70.6321 35.6648 70.651 35.6237C71.0425 34.7702 71.2301 33.8343 71.1983 32.8927C71.1665 31.951 70.9162 31.0305 70.468 30.2065H70.468ZM70.524 35.5872C70.5051 35.6283 70.4856 35.6688 70.4654 35.7086C69.9811 36.6899 69.2368 37.5133 68.3168 38.0855C67.4211 38.643 66.3916 38.9374 65.3421 38.9361C65.2945 38.9361 65.2476 38.9355 65.2001 38.9342C65.1799 38.9342 65.1597 38.9335 65.1395 38.9322C64.1454 38.8968 63.1775 38.5982 62.331 38.0658C61.4845 37.5335 60.7886 36.7857 60.3117 35.896C59.8348 35.0064 59.5934 34.0055 59.6113 32.9919C59.6291 31.9783 59.9056 30.9869 60.4135 30.1153C60.9214 29.2436 61.6432 28.5218 62.5079 28.0207C63.3726 27.5197 64.3504 27.2567 65.3451 27.2576C66.3398 27.2586 67.3171 27.5235 68.1809 28.0262C69.0447 28.5289 69.7651 29.2522 70.2714 30.1248C70.272 30.1262 70.2727 30.1268 70.2733 30.1282C70.2961 30.166 70.3182 30.2045 70.3391 30.243C70.7859 31.0541 71.0358 31.9625 71.068 32.8922C71.1002 33.8219 70.9136 34.7459 70.524 35.5872Z" fill="#3F3D56"/>
<path d="M69.8456 30.3829C69.7315 30.3001 69.595 30.2554 69.4549 30.2549H66.8942C66.7159 30.2549 66.5448 30.3271 66.4187 30.4556C66.2925 30.5842 66.2217 30.7585 66.2217 30.9403C66.2217 31.1221 66.2925 31.2965 66.4187 31.425C66.5448 31.5536 66.7159 31.6258 66.8942 31.6258H69.4549C69.5006 31.6259 69.5462 31.6212 69.591 31.6118C69.6356 31.602 69.6792 31.588 69.7212 31.57C69.8307 31.522 69.9257 31.4451 69.9964 31.3473C70.0671 31.2495 70.1111 31.1343 70.1237 31.0135C70.1364 30.8927 70.1173 30.7707 70.0684 30.6599C70.0195 30.5491 69.9426 30.4535 69.8456 30.3829L69.8456 30.3829Z" fill="#3F3D56"/>
<path d="M67.0647 31.2883C67.2533 31.2883 67.4062 31.1325 67.4062 30.9403C67.4062 30.7481 67.2533 30.5923 67.0647 30.5923C66.8761 30.5923 66.7232 30.7481 66.7232 30.9403C66.7232 31.1325 66.8761 31.2883 67.0647 31.2883Z" fill="#F1F1F1"/>
<path d="M68.1745 31.2883C68.363 31.2883 68.5159 31.1325 68.5159 30.9403C68.5159 30.7481 68.363 30.5923 68.1745 30.5923C67.9859 30.5923 67.833 30.7481 67.833 30.9403C67.833 31.1325 67.9859 31.2883 68.1745 31.2883Z" fill="#F1F1F1"/>
<path d="M69.2842 31.2883C69.4728 31.2883 69.6256 31.1325 69.6256 30.9403C69.6256 30.7481 69.4728 30.5923 69.2842 30.5923C69.0956 30.5923 68.9427 30.7481 68.9427 30.9403C68.9427 31.1325 69.0956 31.2883 69.2842 31.2883Z" fill="#6C63FF"/>
<path d="M82.1445 19.4709C81.2566 20.0137 79.6745 20.6937 78.0578 19.9948L77.0127 19.543L79.107 17.1505C77.4358 15.2725 76.5113 12.8273 76.5138 10.292C76.5163 7.75678 77.4458 5.31348 79.1208 3.43903C80.7957 1.56459 83.0959 0.393535 85.5725 0.154456C88.049 -0.0846228 90.524 0.62543 92.5145 2.14602C94.505 3.66661 95.8681 5.88859 96.3377 8.37827C96.8073 10.8679 96.3496 13.4466 95.0542 15.6109C93.7587 17.7753 91.7183 19.3699 89.3313 20.0836C86.9443 20.7974 84.382 20.5789 82.1445 19.4709Z" fill="white"/>
<path d="M82.15 19.5999C81.2968 20.1104 79.6714 20.816 78.0142 20.0995L76.8258 19.5858L78.9572 17.1507C77.631 15.6304 76.7759 13.7442 76.4995 11.7296C76.2232 9.71496 76.5379 7.66204 77.4041 5.82937C78.2704 3.99669 79.6493 2.46622 81.3673 1.43069C83.0853 0.39516 85.0656 -0.0991147 87.0587 0.0101124C89.0518 0.119339 90.9686 0.827184 92.5678 2.0445C94.1669 3.26182 95.3769 4.93417 96.0453 6.85095C96.7137 8.76772 96.8106 10.8432 96.3238 12.816C95.8371 14.7888 94.7884 16.5707 93.31 17.9373C91.8251 19.3181 89.9688 20.2143 87.9798 20.5106C85.9909 20.8069 83.9605 20.4897 82.15 19.5999H82.15ZM93.8416 3.53088C92.9692 2.55001 91.9157 1.75391 90.7413 1.18804C89.567 0.622172 88.2947 0.297626 86.9972 0.232938C85.6998 0.16825 84.4025 0.364686 83.1796 0.811029C81.9566 1.25737 80.8319 1.94487 79.8697 2.83427C78.9075 3.72367 78.1266 4.79754 77.5716 5.99456C77.0167 7.19157 76.6986 8.48827 76.6354 9.8106C76.5723 11.1329 76.7654 12.455 77.2036 13.7013C77.6419 14.9475 78.3168 16.0936 79.1897 17.074L79.2571 17.1499L77.1997 19.5003L78.1014 19.8901C79.7018 20.582 81.2856 19.8633 82.0872 19.3734L82.139 19.3416L82.1933 19.3686C84.2597 20.3918 86.6111 20.65 88.8439 20.0989C91.0767 19.5477 93.0516 18.2215 94.4295 16.348C95.8074 14.4746 96.5024 12.1706 96.3951 9.83181C96.2879 7.493 95.385 5.2652 93.8416 3.53089L93.8416 3.53088Z" fill="#6C63FF"/>
<path opacity="0.1" d="M94.9593 10.239C94.9592 7.89468 94.0978 5.63541 92.5448 3.90606C90.9919 2.17672 88.8598 1.10264 86.5686 0.895345C86.8367 0.87141 87.1079 0.858459 87.3821 0.858459C89.8223 0.85996 92.162 1.84892 93.8869 3.60794C95.6118 5.36696 96.5808 7.75207 96.5808 10.2389C96.5808 12.7258 95.6118 15.1109 93.8869 16.87C92.162 18.629 89.8223 19.6179 87.3821 19.6194C87.1084 19.6194 86.8376 19.6063 86.5699 19.5824C88.8609 19.3748 90.9926 18.3006 92.5453 16.5714C94.098 14.8421 94.9592 12.583 94.9593 10.239Z" fill="black"/>
<path d="M87.8145 8.36835H81.2376V8.99081H87.8145V8.36835Z" fill="#6C63FF"/>
<path d="M92.7006 10.5216H81.2376V11.1441H92.7006V10.5216Z" fill="#6C63FF"/>
<path d="M92.6894 12.6749H81.2376V13.2974H92.6894V12.6749Z" fill="#6C63FF"/>
<path d="M42.6408 53.832H0.111625C0.0820203 53.832 0.0536279 53.82 0.0326941 53.7987C0.0117604 53.7774 0 53.7484 0 53.7183C0 53.6881 0.0117604 53.6591 0.0326941 53.6378C0.0536279 53.6165 0.0820203 53.6045 0.111625 53.6045H42.6408C42.6704 53.6045 42.6988 53.6165 42.7197 53.6378C42.7406 53.6591 42.7524 53.6881 42.7524 53.7183C42.7524 53.7484 42.7406 53.7774 42.7197 53.7987C42.6988 53.82 42.6704 53.832 42.6408 53.832Z" fill="#CBCBCB"/>
<path d="M26.2398 8.55395C26.1476 8.12787 25.8483 7.77484 25.5034 7.5163C24.9349 7.0901 24.2378 6.88059 23.5333 6.92425C22.8289 6.96791 22.1618 7.26196 21.6482 7.75523C21.3612 8.01356 21.1543 8.35153 21.0528 8.72781C21.0044 8.91587 21.0018 9.11315 21.0453 9.30247C21.0887 9.49179 21.177 9.6674 21.3022 9.81403L21.3495 9.84419C21.3067 9.65899 21.4478 9.47392 21.6165 9.39221C21.7919 9.32661 21.9749 9.28477 22.161 9.26778C22.4426 9.21355 22.7094 9.09836 22.9435 8.93C23.1776 8.76165 23.3735 8.54403 23.518 8.29188C23.6251 8.60223 23.7961 8.88562 24.0196 9.12298C24.2431 9.36035 24.5139 9.5462 24.8137 9.66802C25.1263 9.7926 25.9848 9.96392 26.2824 9.80574C26.6621 9.604 26.3319 8.98004 26.2398 8.55395Z" fill="#2F2E41"/>
</g>
<defs>
<clipPath id="clip0">
<rect width="97" height="54" fill="white"/>
</clipPath>
</defs>
</svg>
