<svg width="102" height="44" viewBox="0 0 102 44" fill="none" xmlns="http://www.w3.org/2000/svg">
<g clip-path="url(#clip0)">
<path d="M22.3883 24.3738C22.3893 24.2397 22.3625 24.1068 22.3098 23.9835C22.2571 23.8602 22.1796 23.7491 22.082 23.6571C21.9844 23.5651 21.8689 23.4942 21.7427 23.4489C21.6165 23.4035 21.4823 23.3847 21.3485 23.3935C21.2147 23.4024 21.0841 23.4387 20.965 23.5003C20.8459 23.5618 20.7407 23.6473 20.6561 23.7513C20.5714 23.8553 20.5091 23.9757 20.4731 24.1048C20.4371 24.234 20.4281 24.3692 20.4466 24.502L17.6438 28.1725C17.5242 28.4117 17.4778 28.6808 17.5105 28.9463C17.5431 29.2117 17.6534 29.4616 17.8274 29.6647L18.0473 29.9211L19.0561 29.7194L20.1995 28.7105L20.065 27.5672L21.4773 25.3477L21.4755 25.3461C21.7227 25.3304 21.9547 25.2211 22.1243 25.0405C22.2938 24.8599 22.3882 24.6215 22.3883 24.3738Z" fill="#FFB9B9"/>
<path d="M3.00562 42.3182L2.54808 40.619L8.88449 38.0458L9.55973 40.5536L3.00562 42.3182Z" fill="#FFB8B8"/>
<path d="M1.47516 43.1951L0 37.7161L0.0692993 37.6975C0.634883 37.5452 1.23778 37.6238 1.74539 37.9161C2.253 38.2083 2.62374 38.6902 2.77607 39.2558L2.77611 39.2559L3.67707 42.6023L1.47516 43.1951Z" fill="#2F2E41"/>
<path d="M11.7337 42.0467L10.3106 41.0118L13.6254 35.0298L15.7259 36.5573L11.7337 42.0467Z" fill="#FFB8B8"/>
<path d="M11.0935 43.6903L6.50457 40.3531L6.54678 40.295C6.89128 39.8213 7.40984 39.5039 7.98838 39.4125C8.56693 39.3211 9.15808 39.4633 9.63181 39.8077L9.63193 39.8078L12.4347 41.8461L11.0935 43.6903Z" fill="#2F2E41"/>
<path d="M23.8313 33.6875L20.25 30.2085C19.9374 29.9048 19.5257 29.7243 19.0907 29.7C18.6556 29.6757 18.2264 29.8093 17.8819 30.0762L11.1199 37.5883L11.7252 38.5299L18.1818 34.1583L22.5534 39.875L26.7233 37.7901L23.8313 33.6875Z" fill="#2F2E41"/>
<path d="M22.2844 34.4273L19.6614 34.2255L17.7619 33.765C17.6546 33.5976 17.4987 33.467 17.3151 33.3906C17.1315 33.3143 16.929 33.2958 16.7347 33.3377C16.5403 33.3796 16.3634 33.4799 16.2276 33.6252C16.0918 33.7704 16.0036 33.9537 15.9749 34.1504C15.9461 34.3471 15.9782 34.548 16.0667 34.726C16.1552 34.904 16.296 35.0508 16.4702 35.1466C16.6445 35.2424 16.8438 35.2827 17.0416 35.262C17.2393 35.2414 17.426 35.1609 17.5768 35.0312L17.5765 35.0326L18.7199 35.5034L23.6295 37.1848L24.2348 36.714L22.2844 34.4273Z" fill="#FFB9B9"/>
<path d="M28.6065 41.691L27.1268 42.6326H25.3781L17.2402 39.6061L5.3359 41.7583L4.99963 39.2025L15.8951 34.4274L25.4455 37.5884L28.6065 41.691Z" fill="#2F2E41"/>
<path d="M25.4454 25.3477C26.8941 25.3477 28.0684 24.1734 28.0684 22.7247C28.0684 21.2761 26.8941 20.1017 25.4454 20.1017C23.9968 20.1017 22.8225 21.2761 22.8225 22.7247C22.8225 24.1734 23.9968 25.3477 25.4454 25.3477Z" fill="#FFB9B9"/>
<path d="M32.2322 33.1972C32.2322 34.7802 31.9828 36.3534 31.4931 37.8587L31.2967 38.4627L30.3551 42.7671L29.3463 43.0361L28.6065 42.0945L27.1268 41.0184L26.0508 39.2698L25.128 37.7323L24.8401 37.2521L23.8313 32.2079L19.9977 30.0557L18.7198 29.8539L18.9889 29.1141L20.1322 27.5672L21.2756 27.4327L21.6119 27.1637L21.8809 27.2982L23.3639 27.8695L28.172 25.8381L28.8755 25.9531L31.2967 27.9708C31.9157 29.6438 32.2324 31.4134 32.2322 33.1972Z" fill="#CCCCCC"/>
<path opacity="0.1" d="M31.4984 32.6114L28.9427 34.2928L25.128 37.7322L24.8402 37.2521L24.0331 33.2167H24.2349L26.3198 29.3832L31.4984 32.6114Z" fill="black"/>
<path d="M26.3198 28.9796L24.2349 32.8131L23.0242 34.1583L21.9482 34.4273L24.8402 37.5883L28.9427 33.8892L31.4984 32.2078L26.3198 28.9796Z" fill="#CCCCCC"/>
<path d="M23.4053 20.7744L23.1211 20.8838C23.078 20.8546 23.041 20.8171 23.0123 20.7737C22.9836 20.7302 22.9638 20.6814 22.954 20.6303C22.9441 20.5791 22.9444 20.5265 22.9549 20.4755C22.9654 20.4245 22.9858 20.376 23.015 20.3328C23.0165 20.3306 23.0181 20.3283 23.0197 20.3261L22.4945 20.3015C22.8316 19.8525 23.2603 19.4802 23.752 19.2093C24.2438 18.9383 24.7875 18.7748 25.3472 18.7297C25.9069 18.6846 26.4697 18.7589 26.9986 18.9476C27.5274 19.1363 28.0101 19.4351 28.4148 19.8243C28.4387 19.742 28.6994 19.9022 28.8058 20.0647C28.8416 19.9307 29.086 20.5784 29.1724 21.0363C29.2124 20.8839 29.3663 21.13 29.2315 21.3662C29.3169 21.3537 29.3555 21.5722 29.2894 21.694C29.3828 21.6501 29.3671 21.9109 29.2657 22.0853C29.3991 22.0734 29.2544 24.8198 27.2534 24.6197C27.114 23.9796 27.1533 24.0194 26.9893 23.1963C26.9129 23.1153 26.8293 23.0415 26.7458 22.9678L26.2943 22.5692C25.7693 22.1058 25.2918 21.5339 24.5924 21.3607C24.1118 21.2416 23.8078 21.2148 24.0698 20.6732C23.8331 20.7719 23.6121 20.9188 23.3734 21.0105C23.3766 20.9348 23.4099 20.8502 23.4053 20.7744Z" fill="#2F2E41"/>
<path d="M26.7569 23.4982C27.0169 23.4982 27.2277 23.2874 27.2277 23.0274C27.2277 22.7674 27.0169 22.5566 26.7569 22.5566C26.4969 22.5566 26.2861 22.7674 26.2861 23.0274C26.2861 23.2874 26.4969 23.4982 26.7569 23.4982Z" fill="#FFB9B9"/>
<path d="M4.80219 11.9083L4.65852 14.0656L6.81584 14.2093L6.95952 12.052L4.80219 11.9083Z" fill="#E6E6E6"/>
<path d="M3.41029 13.0538L6.0299 13.2283L5.85544 15.8479L3.23583 15.6734L3.41029 13.0538ZM5.90841 13.3346L3.5166 13.1753L3.35731 15.5671L5.74913 15.7264L5.90841 13.3346Z" fill="#CCCCCC"/>
<path d="M16.9936 5.51119L14.8797 5.96539L15.3339 8.07925L17.4478 7.62504L16.9936 5.51119Z" fill="#E6E6E6"/>
<path d="M15.5099 4.48737L16.0614 7.05419L13.4946 7.60572L12.9431 5.0389L15.5099 4.48737ZM15.9258 6.96657L15.4223 4.62295L13.0786 5.12652L13.5822 7.47014L15.9258 6.96657Z" fill="#CCCCCC"/>
<path d="M14.7724 15.6627L13.1944 17.1407L14.6725 18.7187L16.2505 17.2407L14.7724 15.6627Z" fill="#E6E6E6"/>
<path d="M16.3639 15.4416L14.4478 17.2364L12.653 15.3203L14.5692 13.5255L16.3639 15.4416ZM14.4531 17.0751L16.2026 15.4364L14.5639 13.6869L12.8144 15.3256L14.4531 17.0751Z" fill="#CCCCCC"/>
<path d="M96.3764 0H32.4058C32.1746 -2.62776e-07 31.9456 0.0455424 31.732 0.134028C31.5184 0.222513 31.3243 0.352208 31.1608 0.515707C30.9973 0.679207 30.8676 0.87331 30.7791 1.08693C30.6906 1.30056 30.6451 1.52951 30.6451 1.76074V37.404C30.6451 37.6352 30.6906 37.8642 30.7791 38.0778C30.8676 38.2914 30.9973 38.4855 31.1608 38.649C31.3243 38.8125 31.5184 38.9422 31.732 39.0307C31.9456 39.1192 32.1746 39.1647 32.4058 39.1647H96.3764C96.8434 39.1647 97.2913 38.9792 97.6215 38.649C97.9517 38.3188 98.1372 37.871 98.1372 37.404V1.76074C98.1372 1.29376 97.9517 0.845911 97.6215 0.515709C97.2913 0.185506 96.8434 2.65351e-07 96.3764 0Z" fill="#3F3D56"/>
<path d="M95.7766 3.11176H33.0057V38.521H95.7766V3.11176Z" fill="white"/>
<path d="M64.3375 2.146C64.693 2.146 64.9813 1.85776 64.9813 1.5022C64.9813 1.14664 64.693 0.858398 64.3375 0.858398C63.9819 0.858398 63.6937 1.14664 63.6937 1.5022C63.6937 1.85776 63.9819 2.146 64.3375 2.146Z" fill="white"/>
<path d="M77.8252 38.5211H33.0057V3.11188L77.8252 38.5211Z" fill="#F2F2F2"/>
<path d="M42.8275 35.8713C46.1598 35.8713 48.8612 33.1699 48.8612 29.8376C48.8612 26.5052 46.1598 23.8038 42.8275 23.8038C39.4951 23.8038 36.7937 26.5052 36.7937 29.8376C36.7937 33.1699 39.4951 35.8713 42.8275 35.8713Z" fill="#6C63FF"/>
<path d="M44.1706 34.3724C42.6862 34.3724 41.2351 33.9323 40.0009 33.1076C38.7666 32.2829 37.8046 31.1107 37.2366 29.7392C36.6685 28.3678 36.5199 26.8587 36.8095 25.4028C37.0991 23.9469 37.8139 22.6096 38.8635 21.56C39.9132 20.5103 41.2505 19.7955 42.7064 19.5059C44.1623 19.2163 45.6714 19.3649 47.0428 19.933C48.4142 20.5011 49.5864 21.4631 50.4111 22.6973C51.2358 23.9316 51.676 25.3826 51.676 26.8671C51.676 27.8527 51.4819 28.8287 51.1047 29.7393C50.7275 30.6498 50.1747 31.4772 49.4777 32.1742C48.7808 32.8711 47.9534 33.4239 47.0428 33.8011C46.1322 34.1783 45.1563 34.3724 44.1706 34.3724ZM44.1706 19.4598C42.7056 19.4598 41.2735 19.8942 40.0554 20.7081C38.8373 21.5221 37.8878 22.6789 37.3272 24.0324C36.7666 25.3859 36.6199 26.8753 36.9057 28.3121C37.1915 29.749 37.897 31.0689 38.9329 32.1048C39.9688 33.1407 41.2887 33.8462 42.7255 34.132C44.1624 34.4178 45.6518 34.2711 47.0053 33.7105C48.3588 33.1499 49.5156 32.2004 50.3295 30.9823C51.1435 29.7642 51.5779 28.3321 51.5779 26.8671C51.5779 25.8943 51.3863 24.9311 51.0141 24.0324C50.6418 23.1337 50.0962 22.3172 49.4084 21.6293C48.7205 20.9415 47.904 20.3959 47.0053 20.0237C46.1066 19.6514 45.1434 19.4598 44.1706 19.4598L44.1706 19.4598Z" fill="#3F3D56"/>
<path d="M81.2453 21.5079H75.3818V22.7331H81.2453V21.5079Z" fill="#3F3D56"/>
<path d="M86.7927 14.8702H69.8344V15.3953H86.7927V14.8702Z" fill="#3F3D56"/>
<path d="M86.7927 16.9332H69.8344V17.4583H86.7927V16.9332Z" fill="#3F3D56"/>
<path d="M86.7927 18.9962H69.8344V19.5212H86.7927V18.9962Z" fill="#3F3D56"/>
<path d="M91.3355 5.23083H88.8851V7.68125H91.3355V5.23083Z" fill="#6C63FF"/>
<path d="M92.4732 8.81895H89.4977V5.84344H92.4732V8.81895ZM89.6271 8.68958H92.3438V5.97282H89.6271L89.6271 8.68958Z" fill="#CCCCCC"/>
<path d="M99.8996 37.8772H93.7736V37.4358C93.7736 37.4243 93.7713 37.4129 93.767 37.4023C93.7626 37.3917 93.7561 37.382 93.748 37.3739C93.7399 37.3658 93.7302 37.3593 93.7196 37.3549C93.709 37.3505 93.6976 37.3483 93.6861 37.3483H91.5857C91.5742 37.3483 91.5629 37.3505 91.5523 37.3549C91.5416 37.3593 91.532 37.3658 91.5239 37.3739C91.5157 37.382 91.5093 37.3917 91.5049 37.4023C91.5005 37.4129 91.4982 37.4243 91.4982 37.4358V37.8772H90.1855V37.4358C90.1855 37.4243 90.1832 37.4129 90.1789 37.4023C90.1745 37.3917 90.168 37.382 90.1599 37.3739C90.1518 37.3658 90.1421 37.3593 90.1315 37.3549C90.1209 37.3505 90.1095 37.3483 90.098 37.3483H87.9977C87.9862 37.3483 87.9748 37.3505 87.9642 37.3549C87.9535 37.3593 87.9439 37.3658 87.9358 37.3739C87.9276 37.382 87.9212 37.3917 87.9168 37.4023C87.9124 37.4129 87.9101 37.4243 87.9101 37.4358V37.8772H86.5974V37.4358C86.5974 37.4243 86.5952 37.4129 86.5908 37.4023C86.5864 37.3917 86.5799 37.382 86.5718 37.3739C86.5637 37.3658 86.554 37.3593 86.5434 37.3549C86.5328 37.3505 86.5214 37.3483 86.5099 37.3483H84.4095C84.398 37.3483 84.3867 37.3505 84.3761 37.3549C84.3654 37.3593 84.3558 37.3658 84.3477 37.3739C84.3395 37.382 84.3331 37.3917 84.3287 37.4023C84.3243 37.4129 84.322 37.4243 84.322 37.4358V37.8772H83.0093V37.4358C83.0093 37.4243 83.007 37.4129 83.0027 37.4023C82.9983 37.3917 82.9918 37.382 82.9837 37.3739C82.9756 37.3658 82.9659 37.3593 82.9553 37.3549C82.9447 37.3505 82.9333 37.3483 82.9218 37.3483H80.8214C80.81 37.3483 80.7986 37.3505 80.788 37.3549C80.7773 37.3593 80.7677 37.3658 80.7596 37.3739C80.7514 37.382 80.745 37.3917 80.7406 37.4023C80.7362 37.4129 80.7339 37.4243 80.7339 37.4358V37.8772H79.4212V37.4358C79.4212 37.4243 79.419 37.4129 79.4146 37.4023C79.4102 37.3917 79.4037 37.382 79.3956 37.3739C79.3875 37.3658 79.3778 37.3593 79.3672 37.3549C79.3566 37.3505 79.3452 37.3483 79.3337 37.3483H77.2333C77.2219 37.3483 77.2105 37.3505 77.1999 37.3549C77.1892 37.3593 77.1796 37.3658 77.1715 37.3739C77.1633 37.382 77.1569 37.3917 77.1525 37.4023C77.1481 37.4129 77.1458 37.4243 77.1458 37.4358V37.8772H75.8331V37.4358C75.8331 37.4243 75.8308 37.4129 75.8264 37.4023C75.822 37.3917 75.8156 37.382 75.8075 37.3739C75.7993 37.3658 75.7897 37.3593 75.7791 37.3549C75.7685 37.3505 75.7571 37.3483 75.7456 37.3483H73.6452C73.6337 37.3483 73.6224 37.3505 73.6117 37.3549C73.6011 37.3593 73.5915 37.3658 73.5834 37.3739C73.5752 37.382 73.5688 37.3917 73.5644 37.4023C73.56 37.4129 73.5577 37.4243 73.5577 37.4358V37.8772H72.245V37.4358C72.245 37.4243 72.2427 37.4129 72.2383 37.4023C72.2339 37.3917 72.2275 37.382 72.2194 37.3739C72.2112 37.3658 72.2016 37.3593 72.191 37.3549C72.1804 37.3505 72.169 37.3483 72.1575 37.3483H55.7047C55.6932 37.3483 55.6819 37.3505 55.6712 37.3549C55.6606 37.3593 55.651 37.3658 55.6428 37.3739C55.6347 37.382 55.6283 37.3917 55.6239 37.4023C55.6195 37.4129 55.6172 37.4243 55.6172 37.4358V37.8772H54.3045V37.4358C54.3045 37.4243 54.3022 37.4129 54.2978 37.4023C54.2934 37.3917 54.287 37.382 54.2789 37.3739C54.2707 37.3658 54.2611 37.3593 54.2505 37.3549C54.2398 37.3505 54.2285 37.3483 54.217 37.3483H52.1166C52.1051 37.3483 52.0938 37.3505 52.0831 37.3549C52.0725 37.3593 52.0629 37.3658 52.0547 37.3739C52.0466 37.382 52.0402 37.3917 52.0358 37.4023C52.0314 37.4129 52.0291 37.4243 52.0291 37.4358V37.8772H50.7164V37.4358C50.7164 37.4243 50.7141 37.4129 50.7097 37.4023C50.7053 37.3917 50.6989 37.382 50.6908 37.3739C50.6826 37.3658 50.673 37.3593 50.6624 37.3549C50.6518 37.3505 50.6404 37.3483 50.6289 37.3483H48.5285C48.517 37.3483 48.5056 37.3505 48.495 37.3549C48.4844 37.3593 48.4748 37.3658 48.4666 37.3739C48.4585 37.382 48.4521 37.3917 48.4477 37.4023C48.4433 37.4129 48.441 37.4243 48.441 37.4358V37.8772H47.1283V37.4358C47.1283 37.4243 47.126 37.4129 47.1216 37.4023C47.1172 37.3917 47.1108 37.382 47.1026 37.3739C47.0945 37.3658 47.0849 37.3593 47.0743 37.3549C47.0636 37.3505 47.0523 37.3483 47.0408 37.3483H44.9404C44.9289 37.3483 44.9175 37.3505 44.9069 37.3549C44.8963 37.3593 44.8867 37.3658 44.8785 37.3739C44.8704 37.382 44.864 37.3917 44.8596 37.4023C44.8552 37.4129 44.8529 37.4243 44.8529 37.4358V37.8772H43.5402V37.4358C43.5402 37.4243 43.5379 37.4129 43.5335 37.4023C43.5291 37.3917 43.5227 37.382 43.5146 37.3739C43.5064 37.3658 43.4968 37.3593 43.4862 37.3549C43.4755 37.3505 43.4642 37.3483 43.4527 37.3483H41.3523C41.3408 37.3483 41.3294 37.3505 41.3188 37.3549C41.3082 37.3593 41.2986 37.3658 41.2904 37.3739C41.2823 37.382 41.2759 37.3917 41.2715 37.4023C41.2671 37.4129 41.2648 37.4243 41.2648 37.4358V37.8772H39.9521V37.4358C39.9521 37.4243 39.9498 37.4129 39.9454 37.4023C39.941 37.3917 39.9346 37.382 39.9264 37.3739C39.9183 37.3658 39.9087 37.3593 39.8981 37.3549C39.8874 37.3505 39.8761 37.3483 39.8646 37.3483H37.7642C37.741 37.3483 37.7187 37.3575 37.7023 37.3739C37.6859 37.3903 37.6767 37.4126 37.6767 37.4358V37.8772H36.364V37.4358C36.364 37.4243 36.3617 37.4129 36.3573 37.4023C36.3529 37.3917 36.3465 37.382 36.3383 37.3739C36.3302 37.3658 36.3206 37.3593 36.31 37.3549C36.2993 37.3505 36.288 37.3483 36.2765 37.3483H34.1761C34.1529 37.3483 34.1306 37.3575 34.1142 37.3739C34.0978 37.3903 34.0886 37.4126 34.0886 37.4358V37.8772H30.0629C29.5059 37.8772 28.9716 38.0984 28.5777 38.4923C28.1839 38.8862 27.9626 39.4205 27.9626 39.9775V40.9272C27.9626 41.4843 28.1839 42.0185 28.5777 42.4124C28.9716 42.8063 29.5059 43.0276 30.0629 43.0276H99.8996C100.457 43.0276 100.991 42.8063 101.385 42.4124C101.779 42.0185 102 41.4843 102 40.9272V39.9775C102 39.7017 101.946 39.4286 101.84 39.1737C101.735 38.9189 101.58 38.6874 101.385 38.4923C101.19 38.2973 100.958 38.1426 100.703 38.037C100.449 37.9315 100.175 37.8772 99.8996 37.8772Z" fill="#3F3D56"/>
</g>
<defs>
<clipPath id="clip0">
<rect width="102" height="43.6902" fill="white"/>
</clipPath>
</defs>
</svg>
