<svg width="93" height="85" viewBox="0 0 93 85" fill="none" xmlns="http://www.w3.org/2000/svg">
<g clip-path="url(#clip0)">
<path d="M41.3043 20.486H0.0176392V46.9279H41.3043V20.486Z" fill="#F2F2F2"/>
<path d="M40.1237 23.8026H1.19821V45.3636H40.1237V23.8026Z" fill="white"/>
<path d="M41.2867 20.4626H0V22.2166H41.2867V20.4626Z" fill="#6C63FF"/>
<path d="M1.30345 21.6845C1.483 21.6845 1.62855 21.5389 1.62855 21.3594C1.62855 21.1799 1.483 21.0343 1.30345 21.0343C1.12391 21.0343 0.978363 21.1799 0.978363 21.3594C0.978363 21.5389 1.12391 21.6845 1.30345 21.6845Z" fill="white"/>
<path d="M2.53743 21.6845C2.71698 21.6845 2.86253 21.5389 2.86253 21.3594C2.86253 21.1799 2.71698 21.0343 2.53743 21.0343C2.35789 21.0343 2.21234 21.1799 2.21234 21.3594C2.21234 21.5389 2.35789 21.6845 2.53743 21.6845Z" fill="white"/>
<path d="M3.77135 21.6845C3.95089 21.6845 4.09644 21.5389 4.09644 21.3594C4.09644 21.1799 3.95089 21.0343 3.77135 21.0343C3.59181 21.0343 3.44626 21.1799 3.44626 21.3594C3.44626 21.5389 3.59181 21.6845 3.77135 21.6845Z" fill="white"/>
<path d="M14.7372 26.0396H4.73514V43.1263H14.7372V26.0396Z" fill="#F2F2F2"/>
<path d="M24.7987 26.0396H16.4637V30.7429H24.7987V26.0396Z" fill="#6C63FF"/>
<path d="M24.7987 32.0527H16.4637V37.1133H24.7987V32.0527Z" fill="#F2F2F2"/>
<path d="M24.7987 38.4231H16.4637V43.1264H24.7987V38.4231Z" fill="#F2F2F2"/>
<path d="M36.5868 26.0396H26.5848V33.4859H36.5868V26.0396Z" fill="#F2F2F2"/>
<path d="M36.5868 35.6801H26.5848V43.1264H36.5868V35.6801Z" fill="#F2F2F2"/>
<path d="M93 20.486H51.7133V46.9279H93V20.486Z" fill="#F2F2F2"/>
<path d="M91.8194 23.8026H52.8939V45.3636H91.8194V23.8026Z" fill="white"/>
<path d="M92.9824 20.4626H51.6957V22.2166H92.9824V20.4626Z" fill="#6C63FF"/>
<path d="M52.9991 21.6845C53.1787 21.6845 53.3242 21.5389 53.3242 21.3594C53.3242 21.1799 53.1787 21.0343 52.9991 21.0343C52.8196 21.0343 52.674 21.1799 52.674 21.3594C52.674 21.5389 52.8196 21.6845 52.9991 21.6845Z" fill="white"/>
<path d="M54.2331 21.6845C54.4126 21.6845 54.5582 21.5389 54.5582 21.3594C54.5582 21.1799 54.4126 21.0343 54.2331 21.0343C54.0535 21.0343 53.908 21.1799 53.908 21.3594C53.908 21.5389 54.0535 21.6845 54.2331 21.6845Z" fill="white"/>
<path d="M55.4671 21.6845C55.6466 21.6845 55.7922 21.5389 55.7922 21.3594C55.7922 21.1799 55.6466 21.0343 55.4671 21.0343C55.2875 21.0343 55.142 21.1799 55.142 21.3594C55.142 21.5389 55.2875 21.6845 55.4671 21.6845Z" fill="white"/>
<path d="M88.2734 26.0396H78.2714V43.1263H88.2734V26.0396Z" fill="#F2F2F2"/>
<path d="M76.6143 26.0394H56.4398V30.7427H76.6143V26.0394Z" fill="#6C63FF"/>
<path d="M76.6143 32.0525H56.4398V37.113H76.6143V32.0525Z" fill="#F2F2F2"/>
<path d="M76.6143 38.4229H56.4398V43.1262H76.6143V38.4229Z" fill="#F2F2F2"/>
<path d="M47.8488 35.2485L47.675 34.3797C47.675 34.3797 45.1192 33.5109 44.8332 35.2485H47.8488Z" fill="#E6E6E6"/>
<path d="M42.9437 83.0876L41.268 83.0875L40.4709 76.6245L42.9439 76.6246L42.9437 83.0876Z" fill="#FFB8B8"/>
<path d="M43.3709 84.7118L37.9681 84.7116V84.6433C37.9681 84.0856 38.1897 83.5507 38.5841 83.1564C38.9785 82.762 39.5133 82.5404 40.071 82.5404H40.0712L43.371 82.5405L43.3709 84.7118Z" fill="#2F2E41"/>
<path d="M48.7041 83.0876L50.3797 83.0875L51.1769 76.6245L48.7039 76.6246L48.7041 83.0876Z" fill="#FFB8B8"/>
<path d="M48.2768 82.5405L51.5766 82.5404H51.5768C52.1345 82.5404 52.6693 82.762 53.0637 83.1564C53.4581 83.5507 53.6796 84.0856 53.6797 84.6433V84.7116L48.2769 84.7118L48.2768 82.5405Z" fill="#2F2E41"/>
<path d="M50.2815 38.8977L52.1929 38.7239L53.4093 44.4582L53.2355 49.6711L51.3241 56.6218L48.7176 55.0579L50.1078 47.9334L50.2815 38.8977Z" fill="#2F2E41"/>
<path d="M51.4913 56.0136L51.0634 59.6626L51.5848 68.1772V80.8654L48.2832 80.6883L47.5882 67.482L45.6767 61.4003L44.2866 68.3509L43.4178 81.3833L40.0293 81.1117V68.3051L39.9424 58.9676L41.1588 55.3185L51.4913 56.0136Z" fill="#2F2E41"/>
<path d="M44.3735 35.4223C44.3735 35.4223 45.5898 33.6847 47.8488 34.901L48.8914 36.2912L52.1929 38.7239L51.4979 46.8908L52.3667 57.143L40.0294 56.9692L42.1145 46.7171V35.7699L44.3735 35.4223Z" fill="#2F2E41"/>
<path opacity="0.25" d="M51.0635 41.6081L52.0597 53.5209L50.8028 47.0646L51.0635 41.6081Z" fill="black"/>
<path d="M42.0006 59.3583C42.1208 59.2147 42.2081 59.0464 42.2563 58.8653C42.3045 58.6843 42.3124 58.4949 42.2795 58.3104C42.2466 58.126 42.1736 57.951 42.0657 57.7978C41.9578 57.6446 41.8177 57.5169 41.6551 57.4238L42.0266 54.5188L40.3163 53.8625L39.8493 57.9723C39.7109 58.2557 39.6813 58.5801 39.7661 58.8839C39.8509 59.1878 40.0441 59.45 40.3093 59.6208C40.5745 59.7917 40.8931 59.8593 41.2048 59.8109C41.5165 59.7626 41.7997 59.6015 42.0006 59.3583Z" fill="#FFB8B8"/>
<path d="M39.8556 56.4479H42.6358V55.2316H39.8556V56.4479Z" fill="#E6E6E6"/>
<path d="M43.9391 37.2468L42.1145 35.7698C42.1145 35.7698 40.8113 35.6829 40.6375 37.5944C40.4638 39.5058 40.2524 47.6728 40.2524 47.6728L39.5949 55.8397L43.244 56.0135L43.9391 47.174V37.2468Z" fill="#2F2E41"/>
<path d="M49.369 31.5996C50.2934 29.9086 49.6719 27.7885 47.9809 26.8641C46.29 25.9397 44.1698 26.5612 43.2455 28.2522C42.3211 29.9431 42.9426 32.0632 44.6335 32.9876C46.3245 33.912 48.4446 33.2905 49.369 31.5996Z" fill="#FFB8B8"/>
<path d="M46.0466 33.004C46.9003 33.2089 47.7997 33.0893 48.5701 32.6683C49.3405 32.2473 49.927 31.555 50.2156 30.7258C50.5043 29.8967 50.4744 28.9899 50.1319 28.1815C49.7894 27.3731 49.1587 26.7209 48.3623 26.3514C47.749 26.0777 47.0782 25.9573 46.408 26.0007C45.3644 26.0556 44.3501 26.4413 43.3055 26.4129L43.1541 26.6562L42.5835 26.5179L42.4612 26.9709L42.3109 26.9657C42.0417 27.466 42.4749 28.1824 43.043 28.1763C43.2679 28.1739 43.4806 28.0802 43.7006 28.0331C43.9206 27.9859 44.1796 27.9977 44.3313 28.1638C44.5284 28.3797 44.4426 28.7166 44.4015 29.006C44.3604 29.2955 44.463 29.6853 44.7552 29.6948C44.9045 29.6996 45.0464 29.5926 45.1931 29.6207C45.3639 29.6535 45.4503 29.8598 45.4254 30.0319C45.3831 30.2008 45.3141 30.3619 45.221 30.5091C44.7974 31.3546 45.1551 32.5047 45.9834 32.9609" fill="#2F2E41"/>
<path d="M68.133 84.8441H24.1686C24.138 84.8441 24.1086 84.832 24.087 84.8103C24.0653 84.7887 24.0532 84.7593 24.0532 84.7287C24.0532 84.6981 24.0653 84.6688 24.087 84.6471C24.1086 84.6255 24.138 84.6133 24.1686 84.6133H68.133C68.1636 84.6133 68.1929 84.6255 68.2146 84.6471C68.2362 84.6688 68.2484 84.6981 68.2484 84.7287C68.2484 84.7593 68.2362 84.7887 68.2146 84.8103C68.1929 84.832 68.1636 84.8441 68.133 84.8441Z" fill="#CCCCCC"/>
</g>
<defs>
<clipPath id="clip0">
<rect width="93" height="84.8441" fill="white"/>
</clipPath>
</defs>
</svg>
