<svg width="92" height="64" viewBox="0 0 92 64" fill="none" xmlns="http://www.w3.org/2000/svg">
<g clip-path="url(#clip0)">
<path d="M9.08727 58.8917C9.12698 60.3739 9.37528 61.8431 9.82486 63.256C9.83483 63.2888 9.84589 63.3211 9.85666 63.3539H12.609C12.6061 63.3245 12.6031 63.2917 12.6002 63.256C12.4167 61.1463 13.4651 48.459 14.7302 46.2631C14.6193 46.4412 8.87386 52.1882 9.08727 58.8917Z" fill="#E6E6E6"/>
<path d="M9.2938 63.256C9.31682 63.2888 9.34074 63.3215 9.36526 63.3538H11.4301C11.4145 63.3259 11.3963 63.2931 11.3753 63.256C11.0342 62.6404 10.0246 60.7998 9.08747 58.8917C8.08075 56.8412 7.15637 54.7129 7.23421 53.9426C7.21009 54.1163 6.51317 59.4124 9.2938 63.256Z" fill="#E6E6E6"/>
<path d="M42.7625 61.0868C42.7827 61.8399 42.9088 62.5863 43.1372 63.3041C43.1423 63.3208 43.1479 63.3372 43.1534 63.3539H44.5517C44.5503 63.3389 44.5487 63.3223 44.5473 63.3041C44.454 62.2323 44.9867 55.7863 45.6294 54.6707C45.5731 54.7612 42.6541 57.681 42.7625 61.0868Z" fill="#E6E6E6"/>
<path d="M42.8674 63.3041C42.8791 63.3208 42.8913 63.3374 42.9037 63.3538H43.9528C43.9449 63.3397 43.9356 63.323 43.925 63.3041C43.7517 62.9914 43.2387 62.0562 42.7626 61.0868C42.2511 60.045 41.7815 58.9637 41.821 58.5724C41.8088 58.6606 41.4547 61.3514 42.8674 63.3041Z" fill="#E6E6E6"/>
<path d="M34.484 18.1565L30.9246 20.6882L33.1393 20.9255L36.2243 18.315L34.484 18.1565Z" fill="#3F3D56"/>
<path d="M20.5583 61.3843L22.6991 61.3842L23.7176 53.1268L20.5579 53.1269L20.5583 61.3843Z" fill="#9F616A"/>
<path d="M20.0121 60.6854L24.2282 60.6852H24.2284C24.9409 60.6853 25.6243 60.9684 26.1282 61.4722C26.632 61.9761 26.9151 62.6594 26.9152 63.372V63.4593L20.0123 63.4596L20.0121 60.6854Z" fill="#2F2E41"/>
<path d="M19.2123 31.8905C19.2123 31.8905 18.2845 32.9393 19.8208 37.0276L19.5502 59.4447L24.529 59.3476L25.6234 48.4127L27.6159 32.4556L19.2123 31.8905Z" fill="#2F2E41"/>
<path d="M14.2415 28.3517C13.9473 28.3509 13.6651 28.2355 13.4546 28.03C13.2441 27.8245 13.122 27.5451 13.1142 27.251L12.8806 18.446L16.8784 10.8614C16.9692 10.6906 17.102 10.5458 17.2643 10.4406C17.4266 10.3355 17.6131 10.2734 17.8061 10.2604L20.8528 10.0648L20.5897 27.8134L14.3406 28.3475C14.3074 28.3503 14.2744 28.3518 14.2415 28.3517Z" fill="#6C63FF"/>
<path d="M29.3235 34.9898L29.269 34.9815C22.8998 34.0101 18.0934 33.0789 18.0456 33.0696L17.9859 33.058L19.6556 28.997C19.6424 28.5727 19.281 16.6564 19.9728 13.2328C20.6426 9.9185 23.7997 9.37535 24.1595 9.32425L24.5207 8.12732L29.0846 10.5021L29.8805 13.2416L30.0422 20.7498L29.3235 34.9898Z" fill="#3F3D56"/>
<path d="M23.0516 23.6229C20.1112 23.6229 17.719 20.4259 17.719 16.4961C17.719 12.5664 20.1112 9.36938 23.0516 9.36938C25.992 9.36938 28.3842 12.5664 28.3842 16.4961C28.3842 20.4259 25.992 23.6229 23.0516 23.6229ZM23.0516 10.0671C20.4959 10.0671 18.4167 12.9512 18.4167 16.4961C18.4167 20.0411 20.4959 22.9252 23.0516 22.9252C25.6073 22.9252 27.6865 20.0411 27.6865 16.4961C27.6865 12.9512 25.6073 10.0671 23.0516 10.0671Z" fill="#6C63FF"/>
<path d="M32.0722 19.5363C31.8667 19.5363 31.6634 19.5788 31.4751 19.6611C31.2868 19.7435 31.1176 19.8639 30.9781 20.0148H23.307L20.4971 20.6129L20.9585 24.1712L30.954 22.0215C31.1195 22.2084 31.3292 22.3509 31.5639 22.4359C31.7986 22.5209 32.0509 22.5458 32.2976 22.5083C32.5444 22.4707 32.7779 22.372 32.9767 22.221C33.1755 22.07 33.3333 21.8717 33.4358 21.644C33.5382 21.4164 33.582 21.1667 33.5631 20.9178C33.5442 20.6689 33.4633 20.4286 33.3277 20.219C33.1921 20.0094 33.0062 19.8371 32.7869 19.7179C32.5676 19.5986 32.3219 19.5362 32.0722 19.5363Z" fill="#9F616A"/>
<path d="M31.509 7.62312C32.9528 6.17933 32.9528 3.83849 31.509 2.3947C30.0652 0.950918 27.7244 0.95092 26.2806 2.39471C24.8368 3.83849 24.8368 6.17933 26.2806 7.62312C27.7244 9.0669 30.0652 9.06691 31.509 7.62312Z" fill="#9F616A"/>
<path d="M25.4177 2.05329L25.2384 1.69256L26.1403 1.24448C26.1403 1.24448 27.1352 -0.374296 28.9354 0.0806153C30.7357 0.535527 31.5457 0.807782 31.5457 0.807782L32.4452 1.26041L31.9937 1.70963L32.8037 1.98189L32.2626 2.25073L32.8922 2.61261L32.5533 4.46771C32.5533 4.46771 31.9903 3.06069 30.9081 3.59838C29.8259 4.13606 27.8464 3.32042 27.8464 3.32042L26.1266 6.64872C26.1266 6.64872 25.7718 5.48198 25.1393 5.79309C25.1393 5.79309 23.5232 3.21943 25.4177 2.05329Z" fill="#2F2E41"/>
<path d="M57.5417 24.8139L57.3836 21.8502L55.7888 20.5544L54.8649 23.2989L49.6975 30.1907C49.4532 30.2299 49.2252 30.3382 49.0406 30.5028C48.8559 30.6675 48.7222 30.8816 48.6554 31.1198C48.5886 31.358 48.5914 31.6104 48.6636 31.8471C48.7357 32.0838 48.8741 32.2948 49.0624 32.4553C49.2508 32.6158 49.4811 32.7189 49.7262 32.7526C49.9714 32.7862 50.221 32.749 50.4456 32.6452C50.6702 32.5414 50.8604 32.3755 50.9936 32.167C51.1269 31.9586 51.1976 31.7163 51.1975 31.4689C51.1975 31.4514 51.1956 31.4345 51.1949 31.4172L57.5417 24.8139Z" fill="#FFB7B7"/>
<path d="M60.6126 62.166L59.3907 62.1659L58.8093 57.4525L60.6128 57.4526L60.6126 62.166Z" fill="#FFB7B7"/>
<path d="M60.9243 63.3505L56.9841 63.3504V63.3005C56.9841 62.8938 57.1457 62.5037 57.4333 62.2161C57.7209 61.9285 58.111 61.7669 58.5177 61.7669H58.5178L60.9244 61.767L60.9243 63.3505Z" fill="#2F2E41"/>
<path d="M66.2941 62.166L65.0722 62.1659L64.4908 57.4525L66.2943 57.4526L66.2941 62.166Z" fill="#FFB7B7"/>
<path d="M66.6058 63.3505L62.6656 63.3504V63.3005C62.6656 62.8938 62.8272 62.5037 63.1148 62.2161C63.4024 61.9285 63.7925 61.7669 64.1992 61.7669H64.1993L66.6059 61.767L66.6058 63.3505Z" fill="#2F2E41"/>
<path d="M65.0025 12.4331C65.5199 10.2969 65.9582 7.88753 64.9825 5.92009C64.3055 4.55499 61.8011 4.09528 60.3654 4.58708C58.9298 5.07887 57.8918 6.41314 57.4353 7.86792C56.9788 9.32269 57.0318 10.8903 57.2308 12.4027C59.8711 12.3519 62.5115 12.3012 65.0025 12.4331Z" fill="#2F2E41"/>
<path d="M62.0237 12.0552C63.5158 11.2396 64.0641 9.3688 63.2485 7.87672C62.4329 6.38465 60.5621 5.8363 59.07 6.65194C57.578 7.46758 57.0296 9.33835 57.8452 10.8304C58.6609 12.3225 60.5316 12.8708 62.0237 12.0552Z" fill="#FFB8B8"/>
<path d="M64.3108 8.7193C64.3206 8.20109 64.2261 7.68621 64.033 7.20524C63.8399 6.72427 63.5521 6.28703 63.1866 5.9195C62.8212 5.55197 62.3856 5.26164 61.9057 5.06577C61.4259 4.86991 60.9115 4.7725 60.3933 4.77933C59.875 4.78616 59.3634 4.8971 58.8889 5.10555C58.4144 5.31399 57.9866 5.6157 57.631 5.99274C57.2753 6.36978 56.9991 6.81445 56.8188 7.30035C56.6384 7.78624 56.5575 8.30343 56.581 8.8212C59.2163 8.82679 61.8516 8.83239 64.3108 8.7193Z" fill="#2F2E41"/>
<path d="M55.6026 27.9035C55.6026 27.9035 55.1015 35.1809 55.3735 37.4008C55.6454 39.6208 58.6059 59.0286 58.6059 59.0286L60.8391 59.0247L61.502 36.1538L64.1428 59.2469L66.4523 59.0068L67.7624 36.4175C67.7624 36.4175 67.5569 27.9604 65.8872 27.1124L55.6026 27.9035Z" fill="#2F2E41"/>
<path d="M59.1055 35.1174C57.4652 35.1168 55.8487 34.7254 54.3898 33.9755L54.3579 33.9592L55.5923 25.7687L55.5121 16.0071C55.51 15.7392 55.5612 15.4735 55.6627 15.2256C55.7643 14.9777 55.9143 14.7525 56.1038 14.5631C56.2934 14.3737 56.5188 14.224 56.7668 14.1227C57.0148 14.0213 57.2806 13.9704 57.5485 13.9729L64.172 14.0337C64.4652 14.0363 64.7548 14.0994 65.0226 14.2188C65.2905 14.3382 65.5309 14.5114 65.7289 14.7277C65.927 14.944 66.0784 15.1988 66.1737 15.4761C66.2691 15.7535 66.3063 16.0475 66.2832 16.3398L65.6633 24.1653L67.7131 30.517L67.3568 30.9906C66.3963 32.2719 65.1506 33.3119 63.7184 34.0282C62.2862 34.7445 60.7068 35.1174 59.1055 35.1174Z" fill="#3F3D56"/>
<path d="M54.8466 22.3943L55.5407 15.3122L55.7638 14.9948C55.9166 14.7774 56.1108 14.5923 56.3353 14.4501C56.5598 14.308 56.8102 14.2116 57.0721 14.1665C57.334 14.1214 57.6022 14.1284 57.8613 14.1872C58.1205 14.246 58.3654 14.3555 58.5822 14.5092L58.7734 14.6448L58.5846 21.822L54.8466 22.3943Z" fill="#3F3D56"/>
<path d="M83.2864 56.9947C85.0806 56.4991 85.8463 59.2238 84.0566 59.7353C82.2624 60.2309 81.4967 57.5062 83.2864 56.9947Z" fill="#3F3D56"/>
<path d="M73.3381 60.5016C75.1324 60.006 75.898 62.7307 74.1083 63.2422C72.3141 63.7378 71.5484 61.0131 73.3381 60.5016Z" fill="#3F3D56"/>
<path d="M69.3119 31.7646L69.3396 31.7568L73.9612 44.3041L74.5705 44.1328L69.9158 31.4955C69.9057 31.3008 69.8293 31.1153 69.6993 30.9699C69.5693 30.8246 69.3935 30.728 69.201 30.6964C66.8897 30.3309 65.9529 32.3826 65.9529 32.3826L65.9621 32.3962L70.6872 45.2243L71.2965 45.0531L66.7105 32.6024C68.1066 31.2215 69.3119 31.7646 69.3119 31.7646Z" fill="#3F3D56"/>
<path d="M74.6087 61.2075C73.9492 61.2018 73.3089 60.9856 72.7808 60.5906C72.2528 60.1956 71.8647 59.6423 71.6731 59.0113C70.791 56.1242 68.7098 49.2068 68.4341 47.3295C68.075 44.8852 70.0982 44.1901 70.1432 44.1752C70.1977 44.1569 71.0111 43.9292 72.1369 43.6142C74.0506 43.0786 76.9425 42.2692 77.0488 42.2214C77.4969 42.0657 77.9723 42.0041 78.4453 42.0406C78.9183 42.0772 79.3787 42.211 79.7975 42.4337C80.2292 42.6608 80.6102 42.9733 80.9174 43.3523C81.2246 43.7312 81.4515 44.1686 81.5843 44.638L84.5611 55.2287C84.7448 55.878 84.6933 56.5712 84.4157 57.1862C84.1381 57.8012 83.6522 58.2984 83.0437 58.59C80.7468 59.6936 77.3781 61.1656 74.6539 61.2072C74.6389 61.2074 74.6236 61.2075 74.6087 61.2075Z" fill="#6C63FF"/>
<path d="M68.8204 31.3306L67.324 22.5893L67.157 19.6392L64.7377 20.4317L66.7781 31.8778C66.6957 32.1005 66.6762 32.3416 66.7216 32.5748C66.7671 32.8079 66.8757 33.024 67.0357 33.1995C67.1958 33.375 67.4009 33.5031 67.6289 33.5699C67.8568 33.6366 68.0987 33.6394 68.3281 33.578C68.5575 33.5165 68.7656 33.3932 68.9296 33.2214C69.0936 33.0496 69.2072 32.8361 69.2581 32.6041C69.3089 32.3721 69.2949 32.1306 69.2177 31.906C69.1406 31.6814 69.0031 31.4823 68.8204 31.3306V31.3306Z" fill="#FFB7B7"/>
<path d="M67.7332 22.0411L63.9573 21.8357L63.0701 14.7111L63.1564 14.6362C63.3691 14.4517 63.616 14.3111 63.8831 14.2224C64.1502 14.1336 64.4323 14.0985 64.713 14.119C64.9937 14.1396 65.2676 14.2153 65.519 14.342C65.7703 14.4687 65.9942 14.6437 66.1777 14.8572L66.3523 15.0603L66.3549 15.0732L67.7332 22.0411Z" fill="#3F3D56"/>
<path d="M83.1099 56.843L79.2505 43.7804L70.1752 46.3451L70.1209 46.1533L79.3858 43.535L79.4137 43.6295L83.3011 56.7866L83.1099 56.843Z" fill="#3F3D56"/>
<path d="M14.5295 27.4152L14.1186 18.4543L18.328 10.2257L18.5055 10.3165L14.3202 18.4979L14.7287 27.406L14.5295 27.4152Z" fill="#3F3D56"/>
<path d="M91.9003 63.5532H0.099675C0.0732395 63.5532 0.0478867 63.5427 0.029194 63.524C0.0105014 63.5053 0 63.48 0 63.4536C0 63.4271 0.0105014 63.4018 0.029194 63.3831C0.0478867 63.3644 0.0732395 63.3539 0.099675 63.3539H91.9003C91.9268 63.3539 91.9521 63.3644 91.9708 63.3831C91.9895 63.4018 92 63.4271 92 63.4536C92 63.48 91.9895 63.5053 91.9708 63.524C91.9521 63.5427 91.9268 63.5532 91.9003 63.5532Z" fill="#CCCCCC"/>
<path d="M21.0076 24.8382L20.1303 22.2287L19.9181 13.5302L20.2919 12.2961C20.4265 11.8519 20.6493 11.4394 20.9471 11.0834C21.2448 10.7274 21.6114 10.4351 22.0248 10.2242C22.4382 10.0132 22.89 9.88793 23.353 9.85576C23.816 9.8236 24.2807 9.88523 24.7194 10.037C25.158 10.1887 25.5614 10.4275 25.9056 10.7389C26.2497 11.0503 26.5274 11.428 26.7221 11.8493C26.9168 12.2706 27.0244 12.7269 27.0385 13.1908C27.0526 13.6548 26.9729 14.1167 26.8041 14.5491L24.8007 19.683L24.9026 19.8806L29.243 19.8455L30.7848 22.6207L21.0076 24.8382Z" fill="#3F3D56"/>
<path d="M48.658 43.4077L48.6549 43.4084L43.8441 44.3715L39.7057 46.038C39.6522 46.0596 39.595 46.0704 39.5373 46.0698C39.4796 46.0692 39.4226 46.0573 39.3696 46.0347C39.3165 46.0121 39.2684 45.9793 39.228 45.9381C39.1876 45.8969 39.1558 45.8482 39.1342 45.7947C39.1292 45.7821 39.1247 45.7693 39.1208 45.7563L36.0976 35.6331C36.0658 35.5282 36.0745 35.4152 36.1221 35.3165C36.1696 35.2178 36.2525 35.1405 36.3543 35.1L40.5684 33.4029L40.5715 33.4023L45.3823 32.4392L49.5207 30.7726C49.6287 30.7291 49.7496 30.7303 49.8568 30.776C49.964 30.8216 50.0486 30.9079 50.0921 31.016C50.0972 31.0286 50.1017 31.0414 50.1056 31.0544L53.1288 41.1776C53.1606 41.2824 53.1518 41.3954 53.1043 41.4942C53.0567 41.5929 52.9739 41.6702 52.872 41.7107L48.658 43.4077Z" fill="#E5E5E5"/>
<path d="M43.4956 36.6078C42.3925 36.2185 41.2522 35.8775 40.1068 35.5942L40.0494 35.58L40.6309 37.5272L43.5936 36.6424L43.4956 36.6078ZM40.6763 37.4431L40.148 35.6741C41.2382 35.9455 42.323 36.2692 43.3752 36.6371L40.6763 37.4431ZM49.2764 39.24C48.7629 38.9497 48.242 38.6716 47.7137 38.4058C47.568 38.3325 47.4219 38.2601 47.2753 38.1889C46.3808 37.7537 45.4725 37.357 44.5506 36.9987L44.5399 36.9945L40.8049 38.1099L41.8249 41.5252L49.3456 39.2791L49.2764 39.24ZM41.8703 41.4411L40.889 38.1553L44.537 37.0658C45.426 37.4116 46.3049 37.7945 47.1736 38.2147C47.3244 38.2876 47.4747 38.3616 47.6244 38.4367C48.1476 38.6987 48.6641 38.973 49.1739 39.2599L41.8703 41.4411ZM49.2764 39.24C48.7629 38.9497 48.242 38.6716 47.7137 38.4058C47.568 38.3325 47.4219 38.2601 47.2753 38.1889C46.3808 37.7537 45.4725 37.357 44.5506 36.9987L44.5399 36.9945L40.8049 38.1099L41.8249 41.5252L49.3456 39.2791L49.2764 39.24ZM41.8703 41.4411L40.889 38.1553L44.537 37.0658C45.426 37.4116 46.3049 37.7945 47.1736 38.2147C47.3244 38.2876 47.4747 38.3616 47.6244 38.4367C48.1476 38.6987 48.6641 38.973 49.1739 39.2599L41.8703 41.4411ZM43.4956 36.6078C42.3925 36.2185 41.2522 35.8775 40.1068 35.5942L40.0494 35.58L40.6309 37.5272L43.5936 36.6424L43.4956 36.6078ZM40.6763 37.4431L40.148 35.6741C41.2382 35.9455 42.323 36.2692 43.3752 36.6371L40.6763 37.4431ZM43.4956 36.6078C42.3925 36.2185 41.2522 35.8775 40.1068 35.5942L40.0494 35.58L40.6309 37.5272L43.5936 36.6424L43.4956 36.6078ZM40.6763 37.4431L40.148 35.6741C41.2382 35.9455 42.323 36.2692 43.3752 36.6371L40.6763 37.4431ZM49.2764 39.24C48.7629 38.9497 48.242 38.6716 47.7137 38.4058C47.568 38.3325 47.4219 38.2601 47.2753 38.1889C46.3808 37.7537 45.4725 37.357 44.5506 36.9987L44.5399 36.9945L40.8049 38.1099L41.8249 41.5252L49.3456 39.2791L49.2764 39.24ZM41.8703 41.4411L40.889 38.1553L44.537 37.0658C45.426 37.4116 46.3049 37.7945 47.1736 38.2147C47.3244 38.2876 47.4747 38.3616 47.6244 38.4367C48.1476 38.6987 48.6641 38.973 49.1739 39.2599L41.8703 41.4411ZM38.7943 43.0649L38.8137 43.1296L41.3708 42.366L41.6511 43.3048L39.094 44.0684L39.1134 44.1332L41.7352 43.3502L41.4162 42.2819L38.7943 43.0649ZM42.4919 43.7589L42.6879 44.4149L42.7508 44.3896L42.576 43.8043L52.5467 40.8266L52.5273 40.7618L42.4919 43.7589ZM52.0536 39.1756L52.0343 39.1109L41.9989 42.1079L42.3179 43.1762L52.3533 40.1791L52.334 40.1144L42.3633 43.0921L42.083 42.1533L52.0536 39.1756ZM44.6006 36.2711C43.0724 35.6839 41.5025 35.2114 39.9041 34.8574L39.7083 34.2018L39.6453 34.2272L39.8426 34.8878L39.9089 34.9277C41.5011 35.2813 43.0648 35.7528 44.5872 36.3383L44.5979 36.3425L50.6663 34.5302L50.6469 34.4654L44.6006 36.2711ZM39.9641 37.6558L37.407 38.4195L37.4264 38.4842L40.0482 37.7012L39.0788 34.4552L39.0158 34.4806L39.9641 37.6558ZM50.8403 35.1129L45.5055 36.7061L45.5924 36.7425C46.4106 37.0868 47.2267 37.4675 48.0407 37.8844C48.1564 37.9436 48.272 38.0036 48.3875 38.0645C48.962 38.3662 49.5322 38.6848 50.0979 39.0201L50.1607 39.0357L51.8603 38.5282L51.8409 38.4634L50.1454 38.9698C49.5857 38.6376 49.0209 38.3215 48.4508 38.0214C48.3367 37.9613 48.2226 37.9019 48.1082 37.8432C47.3115 37.434 46.5105 37.0586 45.7052 36.717L50.8596 35.1776L50.8403 35.1129ZM39.2874 44.7159L39.3067 44.7806L41.8638 44.017L42.0583 44.6683L42.1213 44.643L41.9092 43.9329L39.2874 44.7159ZM37.6004 39.0669L37.6197 39.1317L40.1768 38.368L41.1581 41.6538L38.601 42.4174L38.6203 42.4822L41.2422 41.6992L40.2222 38.2839L37.6004 39.0669ZM43.4956 36.6078C42.3925 36.2185 41.2522 35.8775 40.1068 35.5942L40.0494 35.58L40.6309 37.5272L43.5936 36.6424L43.4956 36.6078ZM40.6763 37.4431L40.148 35.6741C41.2382 35.9455 42.323 36.2692 43.3752 36.6371L40.6763 37.4431ZM49.2764 39.24C48.7629 38.9497 48.242 38.6716 47.7137 38.4058C47.568 38.3325 47.4219 38.2601 47.2753 38.1889C46.3808 37.7537 45.4725 37.357 44.5506 36.9987L44.5399 36.9945L40.8049 38.1099L41.8249 41.5252L49.3456 39.2791L49.2764 39.24ZM41.8703 41.4411L40.889 38.1553L44.537 37.0658C45.426 37.4116 46.3049 37.7945 47.1736 38.2147C47.3244 38.2876 47.4747 38.3616 47.6244 38.4367C48.1476 38.6987 48.6641 38.973 49.1739 39.2599L41.8703 41.4411ZM43.4956 36.6078C42.3925 36.2185 41.2522 35.8775 40.1068 35.5942L40.0494 35.58L40.6309 37.5272L43.5936 36.6424L43.4956 36.6078ZM40.6763 37.4431L40.148 35.6741C41.2382 35.9455 42.323 36.2692 43.3752 36.6371L40.6763 37.4431ZM49.2764 39.24C48.7629 38.9497 48.242 38.6716 47.7137 38.4058C47.568 38.3325 47.4219 38.2601 47.2753 38.1889C46.3808 37.7537 45.4725 37.357 44.5506 36.9987L44.5399 36.9945L40.8049 38.1099L41.8249 41.5252L49.3456 39.2791L49.2764 39.24ZM41.8703 41.4411L40.889 38.1553L44.537 37.0658C45.426 37.4116 46.3049 37.7945 47.1736 38.2147C47.3244 38.2876 47.4747 38.3616 47.6244 38.4367C48.1476 38.6987 48.6641 38.973 49.1739 39.2599L41.8703 41.4411Z" fill="white"/>
<path d="M44.3546 36.9127C44.5995 37.7326 43.6604 40.0023 43.6604 40.0023C43.6604 40.0023 41.6305 38.6192 41.3856 37.7994C41.2681 37.4057 41.3117 36.9814 41.507 36.6198C41.7022 36.2583 42.0331 35.9891 42.4268 35.8716C42.8205 35.754 43.2448 35.7976 43.6064 35.9929C43.9679 36.1881 44.2371 36.519 44.3546 36.9127H44.3546Z" fill="#6C63FF"/>
<path d="M43.5295 37.0888C43.5696 37.2231 43.569 37.3662 43.5277 37.5C43.4865 37.6339 43.4065 37.7525 43.2978 37.8409C43.1892 37.9293 43.0567 37.9835 42.9173 37.9966C42.7778 38.0098 42.6376 37.9812 42.5143 37.9147C42.3911 37.8481 42.2903 37.7465 42.2248 37.6227C42.1593 37.4989 42.132 37.3584 42.1464 37.2191C42.1607 37.0797 42.216 36.9478 42.3053 36.8399C42.3947 36.732 42.514 36.653 42.6482 36.6129C42.7373 36.5862 42.8308 36.5774 42.9234 36.5869C43.0159 36.5964 43.1057 36.624 43.1875 36.6682C43.2694 36.7124 43.3417 36.7723 43.4004 36.8445C43.459 36.9167 43.5029 36.9997 43.5295 37.0888Z" fill="white"/>
<path d="M43.8609 41.0912C44.0915 41.0912 44.2785 40.9043 44.2785 40.6736C44.2785 40.443 44.0915 40.256 43.8609 40.256C43.6302 40.256 43.4433 40.443 43.4433 40.6736C43.4433 40.9043 43.6302 41.0912 43.8609 41.0912Z" fill="#6C63FF"/>
<path d="M48.4179 35.1825L45.5155 36.0493C45.5119 36.0504 45.5082 36.0512 45.5044 36.0516L46.167 33.2639C46.171 33.2466 46.1794 33.2307 46.1916 33.2177C46.2037 33.2048 46.2191 33.1953 46.2361 33.1902C46.2531 33.1851 46.2712 33.1846 46.2884 33.1888C46.3057 33.193 46.3215 33.2017 46.3343 33.214L47.7321 34.5345L47.7991 34.5977L48.4179 35.1825Z" fill="white"/>
<path opacity="0.2" d="M48.4179 35.1825L47.4269 35.4784L47.7024 34.6266L47.7222 34.5652L47.7321 34.5345L47.799 34.5977L48.4179 35.1825Z" fill="black"/>
<path d="M50.034 34.6999L47.5236 35.4496L47.7991 34.5977L47.8189 34.5363L48.1778 33.4262C48.1848 33.4088 48.1954 33.393 48.2089 33.38C48.2224 33.3669 48.2384 33.3568 48.2561 33.3504C48.2737 33.344 48.2925 33.3413 48.3112 33.3426C48.3299 33.3439 48.3482 33.3491 48.3648 33.3579C48.3691 33.3606 48.3733 33.3634 48.3773 33.3666L50.034 34.6999Z" fill="white"/>
</g>
<defs>
<clipPath id="clip0">
<rect width="92" height="63.5532" fill="white"/>
</clipPath>
</defs>
</svg>
